<svg width="33" height="33" viewBox="0 0 33 33" fill="none" xmlns="http://www.w3.org/2000/svg">
<g clip-path="url(#clip0_31_2)">
<path d="M15.5332 12.6592C21.0089 12.4286 26.3313 15.3206 30.5381 19.2764V19.2773C30.7788 19.504 30.9039 19.7425 30.9277 19.9639C30.9507 20.1791 30.8819 20.4149 30.6641 20.6553C30.2832 21.0749 29.8393 21.4266 29.3965 21.8262L29.3945 21.8281C26.1991 24.5256 21.7242 27.364 17.4316 27.3525C15.8232 27.3477 14.4029 26.6805 13.2227 25.4404L13.2217 25.4385L12.9922 25.1865L12.9902 25.1846C11.746 23.7333 11.0442 21.7693 11.0459 19.7188L11.0557 19.3535C11.1431 17.5604 11.809 16.2511 12.9395 14.9697C13.0145 14.8843 13.0225 14.7592 12.959 14.665C12.8949 14.571 12.7751 14.532 12.668 14.5703C12.3632 14.6792 12.0475 14.7704 11.7197 14.8672C11.3957 14.9628 11.0584 15.0617 10.7188 15.1846L10.7197 15.1855L10.7129 15.1885L10.709 15.1904C9.01859 15.8431 7.3943 16.7003 5.86426 17.7471L5.21387 18.208C4.51183 18.7246 3.85147 19.2831 3.18359 19.8281C3.12616 19.8752 3.09289 19.9471 3.09277 20.0225C3.0928 20.0978 3.12619 20.1696 3.18359 20.2168C5.41299 22.0357 7.71047 23.6829 10.4346 24.7793L10.8008 24.915C10.9229 24.957 11.0435 24.9961 11.1553 25.0352C11.3876 25.1164 11.6028 25.2026 11.7988 25.3203C11.8 25.3209 11.8016 25.3216 11.8027 25.3223C12.0205 25.4495 12.1367 25.7609 12.0869 26.0947C12.0367 26.4295 11.8491 26.6293 11.623 26.6445L11.624 26.6455L11.6074 26.6475H11.6064C11.4757 26.6611 11.3328 26.6497 11.2178 26.6123C7.84865 25.5088 4.69387 23.5366 1.96777 20.9961C1.4797 20.541 1.343 20.2389 1.3623 19.9961C1.37291 19.8648 1.42969 19.7248 1.54004 19.5664C1.65028 19.4083 1.81861 19.2259 2.05859 19.0078C5.93229 15.4869 10.5289 12.9053 15.4941 12.6631C15.4993 12.6628 15.5033 12.6623 15.5059 12.6621L15.5117 12.6611C15.5149 12.6607 15.5218 12.6598 15.5283 12.6592H15.5332ZM20.0537 15.2139L20.0781 15.2656L20.0791 15.2686C20.1612 15.4411 20.3127 15.655 20.3818 15.7646C21.0685 16.852 21.3412 18.3973 21.0186 19.7227C20.7437 20.8062 20.1082 21.7072 19.2695 22.2373C18.4975 22.7273 17.5563 22.8978 16.7158 22.6709L16.5498 22.6201C15.7884 22.3598 15.1312 21.7585 14.7363 20.9287C14.396 20.2015 14.2867 19.2165 14.499 18.4365C14.6971 17.7065 15.1378 17.1115 15.7061 16.7754L15.707 16.7764C15.8588 16.6881 16.0842 16.5867 16.3301 16.5156C16.5789 16.4438 16.8256 16.4096 17.0244 16.4297C17.2187 16.4496 17.3311 16.5165 17.3945 16.6123C17.4642 16.7178 17.5279 16.9368 17.4492 17.3701C17.4386 17.4282 17.4088 17.4788 17.2998 17.5381C17.1741 17.6063 17.0048 17.6538 16.7754 17.7188C16.5671 17.7777 16.3049 17.8523 16.083 17.9834C15.8555 18.118 15.6521 18.3237 15.5654 18.6396C15.3788 19.1459 15.4181 19.6951 15.5986 20.1611C15.7789 20.6263 16.1139 21.0439 16.5576 21.2627L16.5605 21.2637C17.1659 21.5544 17.9607 21.5316 18.5498 21.2344C19.8274 20.5888 20.2454 19.2837 20.0889 18.0703C19.9336 16.8679 19.2076 15.6636 18.083 15.1455C17.075 14.6814 16.2245 14.7585 15.2695 15.0498L15.2549 15.0537L15.2402 15.0596C12.977 15.972 12.0808 18.0782 12.2002 20.166C12.319 22.2411 13.4397 24.3721 15.292 25.4258L15.4922 25.5312C16.519 26.0408 17.9271 26.2242 18.9697 26.041C22.328 25.4509 26.3027 23.1895 29.2568 20.2256L29.4307 19.9893L29.2295 19.7764C26.7261 17.3702 23.0423 14.9783 19.7715 14.6094L20.0537 15.2139Z" fill="black"/>
<path d="M15.5332 12.6592V12.8093L15.5395 12.809L15.5332 12.6592ZM30.5381 19.2764H30.6881C30.6881 19.235 30.671 19.1954 30.6408 19.1671L30.5381 19.2764ZM30.5381 19.2773H30.3881C30.3881 19.3187 30.4052 19.3582 30.4353 19.3866L30.5381 19.2773ZM30.9277 19.9639L31.0769 19.948L31.0769 19.9478L30.9277 19.9639ZM30.6641 20.6553L30.7751 20.7561L30.7752 20.756L30.6641 20.6553ZM29.3965 21.8262L29.2959 21.7147L29.2904 21.7201L29.3965 21.8262ZM29.3945 21.8281L29.4916 21.9432L29.5006 21.9342L29.3945 21.8281ZM17.4316 27.3525L17.4312 27.5025H17.4312L17.4316 27.3525ZM13.2227 25.4404L13.0885 25.5075C13.0951 25.5208 13.1037 25.5331 13.114 25.5438L13.2227 25.4404ZM13.2217 25.4385L13.3558 25.3714C13.3497 25.3591 13.3419 25.3477 13.3326 25.3375L13.2217 25.4385ZM12.9922 25.1865L13.1032 25.0854L13.0983 25.0805L12.9922 25.1865ZM12.9902 25.1846L12.876 25.2825L12.8842 25.2906L12.9902 25.1846ZM11.0459 19.7188L10.8959 19.7147L10.8959 19.7186L11.0459 19.7188ZM11.0557 19.3535L10.9058 19.3462L10.9057 19.3495L11.0557 19.3535ZM12.9395 14.9697L13.0519 15.069L13.0521 15.0688L12.9395 14.9697ZM12.959 14.665L13.0833 14.5812L13.0829 14.5806L12.959 14.665ZM12.668 14.5703L12.7184 14.7116L12.7185 14.7116L12.668 14.5703ZM11.7197 14.8672L11.6772 14.7233V14.7233L11.7197 14.8672ZM10.7188 15.1846L10.6677 15.0435C10.6195 15.061 10.5835 15.1019 10.5723 15.152C10.5612 15.2021 10.5764 15.2544 10.6127 15.2906L10.7188 15.1846ZM10.7197 15.1855L10.7788 15.3234C10.8246 15.3038 10.8576 15.2628 10.867 15.2139C10.8764 15.165 10.861 15.1147 10.8258 15.0795L10.7197 15.1855ZM10.7129 15.1885L10.6537 15.0504L10.6458 15.0543L10.7129 15.1885ZM10.709 15.1904L10.763 15.3304C10.7675 15.3286 10.7718 15.3267 10.7761 15.3246L10.709 15.1904ZM5.86426 17.7471L5.77955 17.6233L5.77752 17.6247L5.86426 17.7471ZM5.21387 18.208L5.12712 18.0856L5.12497 18.0872L5.21387 18.208ZM3.18359 19.8281L3.08876 19.7119L3.08854 19.7121L3.18359 19.8281ZM3.09277 20.0225L2.94277 20.0222L2.94277 20.0225L3.09277 20.0225ZM3.18359 20.2168L3.08838 20.3327L3.08877 20.333L3.18359 20.2168ZM10.4346 24.7793L10.3785 24.9185L10.3824 24.9199L10.4346 24.7793ZM10.8008 24.915L10.7486 25.0557L10.752 25.0569L10.8008 24.915ZM11.1553 25.0352L11.2048 24.8936L11.2047 24.8935L11.1553 25.0352ZM11.7988 25.3203L11.7215 25.4491L11.7288 25.453L11.7988 25.3203ZM11.8027 25.3223L11.8784 25.1927L11.8757 25.1912L11.8027 25.3223ZM12.0869 26.0947L12.2353 26.117L12.2353 26.1168L12.0869 26.0947ZM11.623 26.6445L11.613 26.4949C11.5543 26.4988 11.5033 26.5367 11.4826 26.5918C11.4619 26.6469 11.4754 26.709 11.517 26.7506L11.623 26.6445ZM11.624 26.6455L11.6416 26.7945C11.6986 26.7878 11.7469 26.749 11.7657 26.6947C11.7846 26.6404 11.7707 26.5801 11.7301 26.5394L11.624 26.6455ZM11.6074 26.6475V26.7975C11.6133 26.7975 11.6191 26.7971 11.6249 26.7964L11.6074 26.6475ZM11.6064 26.6475V26.4975C11.6013 26.4975 11.5961 26.4977 11.5909 26.4983L11.6064 26.6475ZM11.2178 26.6123L11.1711 26.7549L11.1714 26.755L11.2178 26.6123ZM1.96777 20.9961L1.86548 21.1058L1.86551 21.1058L1.96777 20.9961ZM1.3623 19.9961L1.21279 19.984L1.21278 19.9842L1.3623 19.9961ZM1.54004 19.5664L1.41699 19.4806L1.41697 19.4806L1.54004 19.5664ZM2.05859 19.0078L1.9577 18.8968L1.9577 18.8968L2.05859 19.0078ZM15.4941 12.6631L15.4868 12.5133L15.4868 12.5133L15.4941 12.6631ZM15.5059 12.6621L15.5198 12.8118L15.5305 12.8101L15.5059 12.6621ZM15.5117 12.6611L15.4898 12.5127L15.4871 12.5132L15.5117 12.6611ZM15.5283 12.6592V12.5092C15.5234 12.5092 15.5186 12.5094 15.5137 12.5099L15.5283 12.6592ZM20.0537 15.2139L19.9178 15.2773L19.918 15.2779L20.0537 15.2139ZM20.0781 15.2656L20.2204 15.2182C20.2185 15.2125 20.2163 15.207 20.2138 15.2016L20.0781 15.2656ZM20.0791 15.2686L19.9368 15.316C19.9387 15.3218 19.941 15.3275 19.9436 15.333L20.0791 15.2686ZM20.3818 15.7646L20.255 15.8447L20.255 15.8447L20.3818 15.7646ZM21.0186 19.7227L21.164 19.7595L21.1643 19.7581L21.0186 19.7227ZM19.2695 22.2373L19.1894 22.1105L19.1892 22.1107L19.2695 22.2373ZM16.7158 22.6709L16.6719 22.8144L16.6767 22.8157L16.7158 22.6709ZM16.5498 22.6201L16.5013 22.7621L16.5059 22.7636L16.5498 22.6201ZM14.7363 20.9287L14.6005 20.9923L14.6009 20.9932L14.7363 20.9287ZM14.499 18.4365L14.6438 18.4759L14.6438 18.4758L14.499 18.4365ZM15.7061 16.7754L15.8121 16.6693C15.7637 16.6209 15.6886 16.6114 15.6297 16.6463L15.7061 16.7754ZM15.707 16.7764L15.601 16.8824C15.6491 16.9306 15.7236 16.9403 15.7825 16.906L15.707 16.7764ZM16.3301 16.5156L16.2885 16.3715L16.2884 16.3715L16.3301 16.5156ZM17.0244 16.4297L17.0397 16.2805L17.0395 16.2805L17.0244 16.4297ZM17.3945 16.6123L17.5197 16.5297L17.5196 16.5295L17.3945 16.6123ZM17.4492 17.3701L17.5968 17.3971L17.5968 17.3969L17.4492 17.3701ZM17.2998 17.5381L17.3714 17.6699L17.3715 17.6698L17.2998 17.5381ZM16.7754 17.7188L16.7345 17.5744H16.7345L16.7754 17.7188ZM16.083 17.9834L16.0067 17.8543L16.0066 17.8543L16.083 17.9834ZM15.5654 18.6396L15.7067 18.6917L15.7101 18.6793L15.5654 18.6396ZM15.5986 20.1611L15.4588 20.2153L15.4588 20.2153L15.5986 20.1611ZM16.5576 21.2627L16.4913 21.3972C16.4974 21.4002 16.5037 21.4028 16.5102 21.405L16.5576 21.2627ZM16.5605 21.2637L16.6255 21.1285C16.6198 21.1257 16.614 21.1234 16.608 21.1214L16.5605 21.2637ZM18.5498 21.2344L18.6174 21.3683L18.6175 21.3683L18.5498 21.2344ZM20.0889 18.0703L20.2376 18.0511V18.0511L20.0889 18.0703ZM18.083 15.1455L18.1458 15.0093L18.1457 15.0093L18.083 15.1455ZM15.2695 15.0498L15.3082 15.1948L15.3133 15.1933L15.2695 15.0498ZM15.2549 15.0537L15.2162 14.9088C15.2104 14.9103 15.2047 14.9122 15.1992 14.9144L15.2549 15.0537ZM15.2402 15.0596L15.1845 14.9203L15.1842 14.9204L15.2402 15.0596ZM12.2002 20.166L12.0504 20.1746L12.0504 20.1746L12.2002 20.166ZM15.292 25.4258L15.2178 25.5562L15.2221 25.5585L15.292 25.4258ZM15.4922 25.5312L15.4223 25.664L15.4255 25.6656L15.4922 25.5312ZM18.9697 26.041L18.9957 26.1888L18.9957 26.1888L18.9697 26.041ZM29.2568 20.2256L29.3631 20.3315C29.3684 20.3262 29.3732 20.3205 29.3777 20.3145L29.2568 20.2256ZM29.4307 19.9893L29.5515 20.0781C29.5945 20.0197 29.5895 19.9389 29.5397 19.8862L29.4307 19.9893ZM29.2295 19.7764L29.3386 19.6732L29.3334 19.6682L29.2295 19.7764ZM19.7715 14.6094L19.7883 14.4603C19.7344 14.4542 19.6814 14.4778 19.6497 14.5218C19.618 14.5659 19.6126 14.6237 19.6356 14.6728L19.7715 14.6094ZM15.5332 12.6592L15.5395 12.809C20.959 12.5808 26.2439 15.4443 30.4353 19.3856L30.5381 19.2764L30.6408 19.1671C26.4188 15.1969 21.0588 12.2764 15.5269 12.5093L15.5332 12.6592ZM30.5381 19.2764H30.3881V19.2773H30.5381H30.6881V19.2764H30.5381ZM30.5381 19.2773L30.4353 19.3866C30.6576 19.5959 30.7596 19.8034 30.7786 19.98L30.9277 19.9639L31.0769 19.9478C31.0482 19.6817 30.9001 19.4121 30.6409 19.1681L30.5381 19.2773ZM30.9277 19.9639L30.7786 19.9798C30.7963 20.1464 30.7465 20.341 30.5529 20.5545L30.6641 20.6553L30.7752 20.756C31.0173 20.4889 31.105 20.2119 31.0769 19.948L30.9277 19.9639ZM30.6641 20.6553L30.553 20.5545C30.1788 20.9668 29.7484 21.3066 29.296 21.7148L29.3965 21.8262L29.497 21.9375C29.9302 21.5466 30.3876 21.1831 30.7751 20.7561L30.6641 20.6553ZM29.3965 21.8262L29.2904 21.7201L29.2885 21.7221L29.3945 21.8281L29.5006 21.9342L29.5026 21.9322L29.3965 21.8262ZM29.3945 21.8281L29.2978 21.7135C26.1065 24.4075 21.6675 27.2139 17.432 27.2025L17.4316 27.3525L17.4312 27.5025C21.7809 27.5142 26.2916 24.6438 29.4913 21.9427L29.3945 21.8281ZM17.4316 27.3525L17.4321 27.2025C15.8694 27.1978 14.4869 26.5512 13.3313 25.337L13.2227 25.4404L13.114 25.5438C14.3189 26.8098 15.7769 27.4975 17.4312 27.5025L17.4316 27.3525ZM13.2227 25.4404L13.3568 25.3733L13.3558 25.3714L13.2217 25.4385L13.0875 25.5056L13.0885 25.5075L13.2227 25.4404ZM13.2217 25.4385L13.3326 25.3375L13.1031 25.0855L12.9922 25.1865L12.8813 25.2875L13.1108 25.5395L13.2217 25.4385ZM12.9922 25.1865L13.0983 25.0805L13.0963 25.0785L12.9902 25.1846L12.8842 25.2906L12.8861 25.2926L12.9922 25.1865ZM12.9902 25.1846L13.1041 25.0869C11.8848 23.6648 11.1943 21.7361 11.1959 19.7189L11.0459 19.7188L10.8959 19.7186C10.8942 21.8025 11.6071 23.8018 12.8764 25.2822L12.9902 25.1846ZM11.0459 19.7188L11.1958 19.7228L11.2056 19.3575L11.0557 19.3535L10.9057 19.3495L10.896 19.7147L11.0459 19.7188ZM11.0557 19.3535L11.2055 19.3608C11.2909 17.6087 11.9388 16.3307 13.0519 15.069L12.9395 14.9697L12.827 14.8705C11.6792 16.1715 10.9953 17.512 10.9058 19.3462L11.0557 19.3535ZM12.9395 14.9697L13.0521 15.0688C13.1722 14.9322 13.185 14.7319 13.0833 14.5812L12.959 14.665L12.8346 14.7489C12.86 14.7866 12.8569 14.8365 12.8268 14.8707L12.9395 14.9697ZM12.959 14.665L13.0829 14.5806C12.9804 14.4301 12.7889 14.3678 12.6175 14.4291L12.668 14.5703L12.7185 14.7116C12.7613 14.6962 12.8094 14.7119 12.835 14.7495L12.959 14.665ZM12.668 14.5703L12.6175 14.4291C12.3176 14.5362 12.0067 14.6261 11.6772 14.7233L11.7197 14.8672L11.7622 15.011C12.0883 14.9147 12.4088 14.8222 12.7184 14.7116L12.668 14.5703ZM11.7197 14.8672L11.6772 14.7233C11.3542 14.8187 11.0123 14.9188 10.6677 15.0435L10.7188 15.1846L10.7698 15.3256C11.1044 15.2045 11.4373 15.107 11.7622 15.011L11.7197 14.8672ZM10.7188 15.1846L10.6127 15.2906L10.6137 15.2916L10.7197 15.1855L10.8258 15.0795L10.8248 15.0785L10.7188 15.1846ZM10.7197 15.1855L10.6606 15.0477L10.6538 15.0506L10.7129 15.1885L10.772 15.3263L10.7788 15.3234L10.7197 15.1855ZM10.7129 15.1885L10.6458 15.0543L10.6419 15.0563L10.709 15.1904L10.7761 15.3246L10.78 15.3226L10.7129 15.1885ZM10.709 15.1904L10.655 15.0505C8.9535 15.7074 7.31894 16.5701 5.77956 17.6233L5.86426 17.7471L5.94896 17.8709C7.46965 16.8305 9.08368 15.9788 10.763 15.3304L10.709 15.1904ZM5.86426 17.7471L5.77752 17.6247L5.12713 18.0856L5.21387 18.208L5.3006 18.3304L5.95099 17.8695L5.86426 17.7471ZM5.21387 18.208L5.12497 18.0872C4.41894 18.6067 3.75389 19.1691 3.08876 19.7119L3.18359 19.8281L3.27843 19.9443C3.94906 19.3971 4.60471 18.8424 5.30276 18.3288L5.21387 18.208ZM3.18359 19.8281L3.08854 19.7121C2.99522 19.7885 2.94295 19.9035 2.94277 20.0222L3.09277 20.0225L3.24277 20.0227C3.24282 19.9907 3.2571 19.9618 3.27864 19.9442L3.18359 19.8281ZM3.09277 20.0225L2.94277 20.0225C2.94282 20.1415 2.99543 20.2564 3.08839 20.3327L3.18359 20.2168L3.2788 20.1009C3.25696 20.0829 3.24279 20.054 3.24277 20.0224L3.09277 20.0225ZM3.18359 20.2168L3.08877 20.333C5.32217 22.1552 7.6335 23.8136 10.3786 24.9184L10.4346 24.7793L10.4906 24.6401C7.78744 23.5522 5.50382 21.9162 3.27842 20.1006L3.18359 20.2168ZM10.4346 24.7793L10.3824 24.9199L10.7486 25.0557L10.8008 24.915L10.8529 24.7744L10.4867 24.6386L10.4346 24.7793ZM10.8008 24.915L10.752 25.0569C10.8798 25.1008 10.9923 25.1371 11.1058 25.1768L11.1553 25.0352L11.2047 24.8935C11.0948 24.8551 10.966 24.8132 10.8495 24.7732L10.8008 24.915ZM11.1553 25.0352L11.1058 25.1768C11.3351 25.2569 11.5389 25.3392 11.7216 25.4489L11.7988 25.3203L11.8761 25.1917C11.6668 25.0661 11.4402 24.9758 11.2048 24.8936L11.1553 25.0352ZM11.7988 25.3203L11.7288 25.453C11.7311 25.4542 11.7329 25.4551 11.7339 25.4555C11.7344 25.4558 11.7349 25.456 11.7351 25.4562C11.7353 25.4562 11.7354 25.4563 11.7355 25.4563C11.7356 25.4564 11.7356 25.4564 11.7357 25.4564C11.7359 25.4565 11.7353 25.4562 11.7345 25.4558C11.7338 25.4555 11.732 25.4546 11.7298 25.4533L11.8027 25.3223L11.8757 25.1912C11.8729 25.1896 11.8705 25.1884 11.8691 25.1877C11.8676 25.187 11.8664 25.1864 11.8659 25.1862C11.8651 25.1858 11.8655 25.1859 11.8657 25.186C11.866 25.1862 11.8672 25.1868 11.8688 25.1876L11.7988 25.3203ZM11.8027 25.3223L11.7271 25.4518C11.8738 25.5375 11.9828 25.7757 11.9386 26.0726L12.0869 26.0947L12.2353 26.1168C12.2905 25.7461 12.1672 25.3615 11.8784 25.1928L11.8027 25.3223ZM12.0869 26.0947L11.9386 26.0725C11.8943 26.3676 11.7423 26.4862 11.613 26.4949L11.623 26.6445L11.6331 26.7942C11.9558 26.7725 12.1791 26.4915 12.2353 26.117L12.0869 26.0947ZM11.623 26.6445L11.517 26.7506L11.518 26.7516L11.624 26.6455L11.7301 26.5394L11.7291 26.5385L11.623 26.6445ZM11.624 26.6455L11.6065 26.4965L11.5899 26.4985L11.6074 26.6475L11.6249 26.7964L11.6416 26.7945L11.624 26.6455ZM11.6074 26.6475V26.4975H11.6064V26.6475V26.7975H11.6074V26.6475ZM11.6064 26.6475L11.5909 26.4983C11.4772 26.5101 11.3558 26.4995 11.2642 26.4697L11.2178 26.6123L11.1714 26.755C11.3097 26.7999 11.4742 26.812 11.622 26.7967L11.6064 26.6475ZM11.2178 26.6123L11.2645 26.4698C7.91896 25.374 4.78264 23.4143 2.07004 20.8864L1.96777 20.9961L1.86551 21.1058C4.6051 23.659 7.77833 25.6437 11.1711 26.7549L11.2178 26.6123ZM1.96777 20.9961L2.07006 20.8864C1.58793 20.4369 1.49834 20.1776 1.51183 20.008L1.3623 19.9961L1.21278 19.9842C1.18765 20.3002 1.37147 20.6452 1.86548 21.1058L1.96777 20.9961ZM1.3623 19.9961L1.51182 20.0082C1.51958 19.9121 1.56205 19.7972 1.66311 19.6522L1.54004 19.5664L1.41697 19.4806C1.29733 19.6523 1.22624 19.8176 1.21279 19.984L1.3623 19.9961ZM1.54004 19.5664L1.66309 19.6522C1.76421 19.5071 1.92337 19.3334 2.15949 19.1188L2.05859 19.0078L1.9577 18.8968C1.71385 19.1185 1.53635 19.3094 1.41699 19.4806L1.54004 19.5664ZM2.05859 19.0078L2.15949 19.1188C6.01883 15.6109 10.5837 13.0528 15.5015 12.8129L15.4941 12.6631L15.4868 12.5133C10.474 12.7578 5.84574 15.3628 1.9577 18.8968L2.05859 19.0078ZM15.4941 12.6631L15.5014 12.8129C15.5068 12.8126 15.5114 12.8123 15.5149 12.8119C15.5166 12.8118 15.518 12.8116 15.5189 12.8116C15.5201 12.8114 15.52 12.8114 15.5198 12.8115L15.5059 12.6621L15.4919 12.5128C15.4905 12.5129 15.4889 12.5131 15.4885 12.5131C15.4877 12.5132 15.4874 12.5132 15.4871 12.5132C15.4866 12.5133 15.4866 12.5133 15.4868 12.5133L15.4941 12.6631ZM15.5059 12.6621L15.5305 12.8101L15.5364 12.8091L15.5117 12.6611L15.4871 12.5132L15.4812 12.5142L15.5059 12.6621ZM15.5117 12.6611L15.5336 12.8095C15.5332 12.8096 15.5342 12.8094 15.5365 12.8092C15.5386 12.8089 15.5409 12.8087 15.5429 12.8085L15.5283 12.6592L15.5137 12.5099C15.5055 12.5107 15.4961 12.5118 15.4898 12.5127L15.5117 12.6611ZM15.5283 12.6592V12.8092H15.5332V12.6592V12.5092H15.5283V12.6592ZM20.0537 15.2139L19.918 15.2779L19.9425 15.3296L20.0781 15.2656L20.2138 15.2016L20.1894 15.1499L20.0537 15.2139ZM20.0781 15.2656L19.9358 15.3131L19.9368 15.316L20.0791 15.2686L20.2214 15.2211L20.2204 15.2182L20.0781 15.2656ZM20.0791 15.2686L19.9436 15.333C20.0308 15.5162 20.1936 15.7473 20.255 15.8447L20.3818 15.7646L20.5087 15.6846C20.4318 15.5627 20.2916 15.366 20.2146 15.2041L20.0791 15.2686ZM20.3818 15.7646L20.255 15.8447C20.9201 16.898 21.1858 18.4016 20.8728 19.6872L21.0186 19.7227L21.1643 19.7581C21.4967 18.3929 21.2168 16.8059 20.5087 15.6846L20.3818 15.7646ZM21.0186 19.7227L20.8732 19.6858C20.6067 20.736 19.9923 21.603 19.1894 22.1105L19.2695 22.2373L19.3497 22.3641C20.2241 21.8114 20.8806 20.8764 21.1639 19.7595L21.0186 19.7227ZM19.2695 22.2373L19.1892 22.1107C18.4488 22.5805 17.5506 22.7409 16.7549 22.5261L16.7158 22.6709L16.6767 22.8157C17.5619 23.0547 18.5462 22.8741 19.3499 22.364L19.2695 22.2373ZM16.7158 22.6709L16.7597 22.5275L16.5937 22.4767L16.5498 22.6201L16.5059 22.7636L16.6719 22.8143L16.7158 22.6709ZM16.5498 22.6201L16.5983 22.4782C15.8791 22.2323 15.2512 21.6616 14.8718 20.8643L14.7363 20.9287L14.6009 20.9932C15.0112 21.8554 15.6976 22.4873 16.5013 22.7621L16.5498 22.6201ZM14.7363 20.9287L14.8722 20.8651C14.5457 20.1675 14.4415 19.2189 14.6438 18.4759L14.499 18.4365L14.3543 18.3971C14.1319 19.2141 14.2463 20.2355 14.6005 20.9923L14.7363 20.9287ZM14.499 18.4365L14.6438 18.4758C14.8328 17.7792 15.2514 17.2186 15.7824 16.9045L15.7061 16.7754L15.6297 16.6463C15.0242 17.0045 14.5614 17.6338 14.3543 18.3972L14.499 18.4365ZM15.7061 16.7754L15.6 16.8815L15.601 16.8824L15.707 16.7764L15.8131 16.6703L15.8121 16.6693L15.7061 16.7754ZM15.707 16.7764L15.7825 16.906C15.9235 16.824 16.1375 16.7275 16.3717 16.6597L16.3301 16.5156L16.2884 16.3715C16.0309 16.446 15.7941 16.5521 15.6316 16.6467L15.707 16.7764ZM16.3301 16.5156L16.3717 16.6597C16.61 16.5909 16.8363 16.5614 17.0093 16.5789L17.0244 16.4297L17.0395 16.2805C16.8148 16.2577 16.5477 16.2967 16.2885 16.3715L16.3301 16.5156ZM17.0244 16.4297L17.0091 16.5789C17.1744 16.5959 17.2384 16.6482 17.2695 16.6951L17.3945 16.6123L17.5196 16.5295C17.4238 16.3848 17.263 16.3034 17.0397 16.2805L17.0244 16.4297ZM17.3945 16.6123L17.2693 16.6949C17.309 16.7551 17.3769 16.929 17.3016 17.3433L17.4492 17.3701L17.5968 17.3969C17.679 16.9445 17.6193 16.6805 17.5197 16.5297L17.3945 16.6123ZM17.4492 17.3701L17.3017 17.3432C17.3 17.3525 17.2986 17.3546 17.2954 17.3585C17.2897 17.3655 17.273 17.3819 17.2281 17.4064L17.2998 17.5381L17.3715 17.6698C17.4355 17.635 17.4883 17.5964 17.5274 17.5487C17.569 17.498 17.5879 17.4458 17.5968 17.3971L17.4492 17.3701ZM17.2998 17.5381L17.2283 17.4062C17.1207 17.4646 16.9707 17.5075 16.7345 17.5744L16.7754 17.7188L16.8163 17.8631C17.0389 17.8 17.2275 17.748 17.3714 17.6699L17.2998 17.5381ZM16.7754 17.7188L16.7345 17.5744C16.5292 17.6326 16.248 17.7117 16.0067 17.8543L16.083 17.9834L16.1593 18.1125C16.3618 17.9929 16.6051 17.9229 16.8163 17.8631L16.7754 17.7188ZM16.083 17.9834L16.0066 17.8543C15.7543 18.0036 15.5201 18.2377 15.4208 18.6L15.5654 18.6396L15.7101 18.6793C15.7841 18.4096 15.9566 18.2325 16.1594 18.1125L16.083 17.9834ZM15.5654 18.6396L15.4247 18.5878C15.2235 19.1335 15.2672 19.7208 15.4588 20.2153L15.5986 20.1611L15.7385 20.107C15.569 19.6695 15.5341 19.1583 15.7062 18.6915L15.5654 18.6396ZM15.5986 20.1611L15.4588 20.2153C15.6497 20.7081 16.0073 21.1586 16.4913 21.3972L16.5576 21.2627L16.624 21.1282C16.2205 20.9292 15.908 20.5446 15.7385 20.1069L15.5986 20.1611ZM16.5576 21.2627L16.5102 21.405L16.5131 21.406L16.5605 21.2637L16.608 21.1214L16.6051 21.1204L16.5576 21.2627ZM16.5605 21.2637L16.4956 21.3989C17.1447 21.7107 17.9885 21.6856 18.6174 21.3683L18.5498 21.2344L18.4822 21.1005C17.9329 21.3776 17.1871 21.3982 16.6255 21.1285L16.5605 21.2637ZM18.5498 21.2344L18.6175 21.3683C19.9672 20.6862 20.3999 19.3085 20.2376 18.0511L20.0889 18.0703L19.9401 18.0895C20.091 19.2589 19.6876 20.4914 18.4822 21.1005L18.5498 21.2344ZM20.0889 18.0703L20.2376 18.0511C20.0773 16.8091 19.327 15.5535 18.1458 15.0093L18.083 15.1455L18.0202 15.2817C19.0882 15.7738 19.79 16.9266 19.9401 18.0895L20.0889 18.0703ZM18.083 15.1455L18.1457 15.0093C17.0931 14.5246 16.2021 14.6086 15.2258 14.9063L15.2695 15.0498L15.3133 15.1933C16.247 14.9085 17.0568 14.8382 18.0203 15.2818L18.083 15.1455ZM15.2695 15.0498L15.2309 14.9049L15.2162 14.9088L15.2549 15.0537L15.2935 15.1986L15.3082 15.1947L15.2695 15.0498ZM15.2549 15.0537L15.1992 14.9144L15.1845 14.9203L15.2402 15.0596L15.2959 15.1988L15.3106 15.193L15.2549 15.0537ZM15.2402 15.0596L15.1842 14.9204C12.8469 15.8627 11.9284 18.0394 12.0504 20.1746L12.2002 20.166L12.35 20.1575C12.2333 18.117 13.107 16.0813 15.2963 15.1987L15.2402 15.0596ZM12.2002 20.166L12.0504 20.1746C12.1716 22.2916 13.3142 24.4733 15.2178 25.5562L15.292 25.4258L15.3662 25.2954C13.5652 24.2709 12.4663 22.1905 12.3499 20.1574L12.2002 20.166ZM15.292 25.4258L15.2221 25.5585L15.4223 25.664L15.4922 25.5312L15.5621 25.3985L15.3619 25.2931L15.292 25.4258ZM15.4922 25.5312L15.4255 25.6656C16.4814 26.1896 17.922 26.3774 18.9957 26.1888L18.9697 26.041L18.9438 25.8933C17.9321 26.071 16.5565 25.8919 15.5589 25.3969L15.4922 25.5312ZM18.9697 26.041L18.9957 26.1888C22.3912 25.5921 26.3926 23.3119 29.3631 20.3315L29.2568 20.2256L29.1506 20.1197C26.2128 23.0672 22.2648 25.3097 18.9438 25.8933L18.9697 26.041ZM29.2568 20.2256L29.3777 20.3145L29.5515 20.0781L29.4307 19.9893L29.3098 19.9004L29.136 20.1367L29.2568 20.2256ZM29.4307 19.9893L29.5397 19.8862L29.3385 19.6733L29.2295 19.7764L29.1205 19.8794L29.3216 20.0923L29.4307 19.9893ZM29.2295 19.7764L29.3334 19.6682C26.8205 17.2529 23.1071 14.8347 19.7883 14.4603L19.7715 14.6094L19.7547 14.7584C22.9775 15.122 26.6318 17.4876 29.1255 19.8845L29.2295 19.7764ZM19.7715 14.6094L19.6356 14.6728L19.9178 15.2773L20.0537 15.2139L20.1896 15.1504L19.9074 14.5459L19.7715 14.6094Z" fill="black"/>
<path d="M15.0409 5.51017C15.7292 5.55678 16.0831 5.85235 16.155 6.57015C16.2855 7.87316 16.5166 9.3014 16.5045 10.611C16.5007 11.0295 16.0035 11.3098 15.6205 11.3793C14.5441 11.4524 14.5185 10.3184 14.4559 9.56014C14.3765 8.59743 14.2328 7.63972 14.1906 6.67367C14.1611 6.00019 14.3788 5.70104 15.0409 5.51017Z" fill="black"/>
<path d="M31.1244 9.55167C32.3319 9.73298 32.4815 10.6508 31.7138 11.4861C30.8667 12.4083 30.0942 13.4213 29.2005 14.2876C29.0787 14.4058 28.7907 14.4473 28.6292 14.4607C28.4415 14.4604 28.3283 14.4407 28.1596 14.3492C27.9136 14.2133 27.7351 13.9807 27.6677 13.7075C27.6143 13.4938 27.6366 13.1878 27.7872 12.9973C28.6436 11.9147 29.632 10.7742 30.5906 9.77982C30.7043 9.66187 30.9846 9.58518 31.1244 9.55167Z" fill="black"/>
<path d="M1.52738 9.92268C1.86671 9.84799 2.19791 9.88386 2.44954 10.1595C3.26583 11.0521 3.9793 12.0537 4.74983 12.9869C5.35363 13.7182 5.45803 14.3927 4.49965 14.867C4.0928 14.9608 3.7713 14.9003 3.49272 14.5799C2.7333 13.704 2.02469 12.7665 1.29651 11.8652C0.979433 11.4728 0.644216 11.0399 0.867873 10.5217C1.00721 10.1988 1.21745 10.0527 1.52738 9.92268Z" fill="black"/>
</g>
<defs>
<clipPath id="clip0_31_2">
<rect width="33" height="33" fill="white"/>
</clipPath>
</defs>
</svg>
