<svg width="33" height="33" viewBox="0 0 33 33" fill="none" xmlns="http://www.w3.org/2000/svg">
<path d="M25.5713 28.6992C25.9519 28.6144 26.3491 28.742 26.6094 29.0322C26.8697 29.3225 26.9528 29.7306 26.8271 30.0996C26.7016 30.4687 26.3864 30.7414 26.0029 30.8125C25.4248 30.9197 24.8667 30.5439 24.749 29.9678C24.6315 29.3918 24.9977 28.8274 25.5713 28.6992ZM10.5205 17.5293C10.6908 17.5227 10.8844 17.5699 11.0166 17.6758C11.0842 17.73 11.1411 17.8031 11.1631 17.8955C11.1852 17.9891 11.1684 18.0891 11.1172 18.1885C10.9468 18.5176 10.5701 18.7355 10.2021 18.9092C10.0167 18.9967 9.81793 19.0797 9.64355 19.1582C9.46539 19.2384 9.30663 19.3165 9.18262 19.3994C9.08124 19.4672 8.85128 19.5996 8.5791 19.7607C8.30324 19.924 7.97626 20.1214 7.67188 20.3262C7.36606 20.5319 7.08801 20.741 6.90625 20.9268C6.81503 21.02 6.75373 21.1011 6.72363 21.167C6.70419 21.2098 6.70401 21.2387 6.70703 21.2588C6.82963 21.3197 7.03291 21.3499 7.30566 21.3408C7.59652 21.3311 7.94141 21.2814 8.29492 21.2148C9.00573 21.0811 9.72581 20.8826 10.1113 20.7959C10.6572 20.6715 11.2074 20.5631 11.7598 20.4717C12.226 20.3946 12.8964 20.306 13.4873 20.3984C13.7834 20.4449 14.0681 20.538 14.2988 20.707C14.5322 20.8781 14.7057 21.1235 14.7812 21.4609C14.8573 21.8018 14.7503 22.1178 14.5693 22.4023C14.3895 22.6848 14.1287 22.9507 13.873 23.1973C13.6126 23.4484 13.3596 23.6788 13.1787 23.9033C13.0039 24.1204 12.9188 24.305 12.9365 24.4717C12.9778 24.5342 13.0594 24.5933 13.1973 24.6387C13.3443 24.6869 13.5384 24.7157 13.7695 24.7266C14.2323 24.7483 14.8211 24.6983 15.4268 24.6162C16.6393 24.4518 17.8918 24.1632 18.3145 24.085C18.9662 23.9628 19.623 23.8658 20.2822 23.7939C21.1957 23.695 22.5415 23.5694 23.7891 23.7344C25.0326 23.899 26.2175 24.3584 26.7568 25.4629C26.8951 25.7462 26.9746 26.1252 26.9951 26.499C27.0156 26.8726 26.9779 27.2568 26.8652 27.5498C26.8241 27.6566 26.7773 27.7658 26.7051 27.8457C26.6249 27.9342 26.5193 27.9804 26.3799 27.9805V27.9795C26.1637 28.0112 25.9936 27.9853 25.8828 27.875C25.7723 27.7645 25.7556 27.6039 25.7627 27.4609C25.77 27.3143 25.8046 27.147 25.833 26.9971C25.8626 26.8407 25.8856 26.7018 25.8799 26.5908C25.8453 25.928 25.5285 25.4943 25.042 25.2109C24.5479 24.9233 23.8737 24.7891 23.1338 24.749C21.6537 24.6691 19.9699 24.9644 19.0586 25.0713C18.5527 25.1306 18.0296 25.2353 17.4961 25.3486C16.9643 25.4616 16.4197 25.5833 15.877 25.6768C14.7909 25.8637 13.6891 25.9396 12.6514 25.5908L12.6387 25.5869V25.5859C12.358 25.4539 12.1552 25.2857 12.0234 25.0908C11.8915 24.8954 11.8356 24.6782 11.8359 24.4561C11.8367 24.0164 12.0595 23.5548 12.3584 23.1621C12.4458 23.0474 12.5882 22.9118 12.7393 22.7725C12.8936 22.6301 13.0624 22.4794 13.2158 22.3262C13.3698 22.1724 13.5022 22.0226 13.584 21.8857C13.6604 21.7577 13.6773 21.6625 13.6592 21.5918C13.5822 21.5108 13.4469 21.4516 13.2354 21.4287C13.013 21.4048 12.729 21.4206 12.3994 21.4648C11.7402 21.5534 10.9221 21.7524 10.0811 21.9482C9.24422 22.1431 8.38446 22.3343 7.6543 22.4033C7.28934 22.4378 6.95115 22.4416 6.66113 22.3984C6.37187 22.3553 6.11902 22.2634 5.9375 22.0957C5.72507 21.8993 5.60093 21.691 5.55273 21.4766C5.50465 21.2623 5.53431 21.0525 5.6123 20.8564C5.7666 20.4691 6.11325 20.1228 6.45508 19.8633C7.69294 18.9239 9.06966 18.1781 10.4775 17.5391L10.498 17.5293H10.5205ZM24.541 2.17676C24.7143 2.20679 24.8709 2.29915 24.9795 2.4375C25.0443 2.51897 25.0857 2.60277 25.0996 2.6875C25.1135 2.77303 25.0979 2.85215 25.0664 2.92285C25.0064 3.05713 24.883 3.16682 24.7764 3.25391C24.1706 3.74823 23.5463 4.22337 22.9307 4.7002L16.9043 9.36719C16.4573 9.71386 15.8574 10.1976 15.3643 10.5273C15.5629 10.7296 15.8228 11.0322 16.0762 11.3408C16.3774 11.7076 16.6779 12.0894 16.8701 12.3301C17.4774 13.0903 18.2225 13.9421 18.8154 14.7236C19.4613 14.1817 20.2375 13.6203 20.8994 13.1191L24.4658 10.4189L25.4473 9.66895L26.4482 8.91602C26.6436 8.74603 26.866 8.64736 27.0693 8.69434C27.2869 8.74509 27.421 8.94582 27.4678 9.23438C27.4782 9.29951 27.4626 9.36268 27.4385 9.41602C27.4141 9.46978 27.3778 9.52271 27.3369 9.57227C27.2552 9.67139 27.1426 9.773 27.0273 9.86621C26.8026 10.0479 26.5264 10.227 26.4385 10.293L24.7471 11.5781L21.0723 14.3594C20.7615 14.5925 20.2803 14.9913 19.79 15.377C19.3063 15.7575 18.81 16.1288 18.4873 16.291C18.4112 16.3291 18.2688 16.3689 18.0928 16.4102C17.9117 16.4526 17.6803 16.5 17.416 16.5488C16.8863 16.6467 16.2176 16.7532 15.5391 16.8545C14.1838 17.0567 12.7753 17.2362 12.3379 17.2627C12.1249 17.2756 11.9006 17.2737 11.6787 17.2041L11.6543 17.1973L11.6357 17.1807C11.5337 17.0898 11.4978 16.9584 11.4902 16.8428C11.4827 16.7257 11.5015 16.6059 11.5312 16.5127C11.8092 15.625 12.1885 14.765 12.5127 13.9082C12.9432 12.7702 13.3578 11.6101 13.8418 10.4863C13.8842 10.3883 13.9575 10.3001 14.0312 10.2266C14.1059 10.1523 14.1886 10.0853 14.2568 10.0322C16.5473 8.25004 18.849 6.47942 21.1416 4.70117L23.2422 3.07227C23.3849 2.96194 23.6205 2.77036 23.8418 2.60156C24.065 2.43129 24.3019 2.26262 24.4736 2.18457L24.5059 2.16992L24.541 2.17676ZM14.5312 11.1035C14.254 11.7403 14.0076 12.3839 13.7656 13.0264C13.5233 13.6697 13.2847 14.3116 13.0234 14.9492C12.9437 15.1438 12.8676 15.3638 12.792 15.5762C12.7157 15.7902 12.6399 15.9983 12.5596 16.1768L12.4746 16.3643L12.6787 16.3389C13.7065 16.2139 14.7336 16.0792 15.7588 15.9346L16.9619 15.7549C17.3625 15.6907 17.7629 15.6223 18.1621 15.5498L18.3545 15.5146L18.2314 15.3623C18.0767 15.172 17.2257 14.1176 16.3994 13.0996C15.9866 12.591 15.5807 12.0911 15.2715 11.7158C15.1171 11.5285 14.9856 11.3718 14.8906 11.2598C14.8434 11.2041 14.8043 11.1584 14.7754 11.126C14.7612 11.11 14.7484 11.0955 14.7383 11.085C14.7333 11.0798 14.7277 11.074 14.7227 11.0693C14.7191 11.0661 14.7087 11.0572 14.6963 11.0498L14.583 10.9824L14.5312 11.1035Z" fill="black"/>
<path d="M25.5713 28.6992L25.5495 28.6016L25.5495 28.6016L25.5713 28.6992ZM26.6094 29.0322L26.5349 29.099L26.5349 29.099L26.6094 29.0322ZM26.8271 30.0996L26.7325 30.0674L26.7325 30.0674L26.8271 30.0996ZM26.0029 30.8125L26.0212 30.9108L26.0212 30.9108L26.0029 30.8125ZM24.749 29.9678L24.651 29.9878L24.651 29.9878L24.749 29.9678ZM10.5205 17.5293V17.6294L10.5244 17.6292L10.5205 17.5293ZM11.0166 17.6758L11.0792 17.5978L11.0791 17.5977L11.0166 17.6758ZM11.1631 17.8955L11.2604 17.8725L11.2604 17.8724L11.1631 17.8955ZM11.1172 18.1885L11.206 18.2345L11.2061 18.2343L11.1172 18.1885ZM10.2021 18.9092L10.2448 18.9996L10.2448 18.9996L10.2021 18.9092ZM9.64355 19.1582L9.60251 19.067L9.60251 19.067L9.64355 19.1582ZM9.18262 19.3994L9.23819 19.4826L9.2382 19.4825L9.18262 19.3994ZM8.5791 19.7607L8.52816 19.6747L8.52816 19.6747L8.5791 19.7607ZM7.67188 20.3262L7.61606 20.2432L7.61606 20.2432L7.67188 20.3262ZM6.90625 20.9268L6.83478 20.8568L6.83476 20.8568L6.90625 20.9268ZM6.72363 21.167L6.63266 21.1255L6.6326 21.1256L6.72363 21.167ZM6.70703 21.2588L6.60815 21.2737L6.61591 21.3252L6.66256 21.3484L6.70703 21.2588ZM7.30566 21.3408L7.30899 21.4408L7.30901 21.4408L7.30566 21.3408ZM8.29492 21.2148L8.31342 21.3131H8.31342L8.29492 21.2148ZM10.1113 20.7959L10.1333 20.8935L10.1335 20.8934L10.1113 20.7959ZM11.7598 20.4717L11.7435 20.373L11.7434 20.373L11.7598 20.4717ZM13.4873 20.3984L13.5028 20.2996L13.5028 20.2996L13.4873 20.3984ZM14.2988 20.707L14.3579 20.6264L14.3579 20.6264L14.2988 20.707ZM14.7812 21.4609L14.8789 21.4392L14.8788 21.4391L14.7812 21.4609ZM14.5693 22.4023L14.6537 22.456L14.6537 22.456L14.5693 22.4023ZM13.873 23.1973L13.9425 23.2692L13.9425 23.2692L13.873 23.1973ZM13.1787 23.9033L13.1008 23.8406L13.1008 23.8406L13.1787 23.9033ZM12.9365 24.4717L12.8371 24.4823L12.8397 24.5064L12.8531 24.5268L12.9365 24.4717ZM13.1973 24.6387L13.166 24.7337L13.1661 24.7337L13.1973 24.6387ZM13.7695 24.7266L13.7648 24.8265H13.7648L13.7695 24.7266ZM15.4268 24.6162L15.4402 24.7153H15.4402L15.4268 24.6162ZM18.3145 24.085L18.3327 24.1833L18.3329 24.1833L18.3145 24.085ZM20.2822 23.7939L20.2715 23.6945L20.2714 23.6945L20.2822 23.7939ZM23.7891 23.7344L23.8022 23.6352L23.8022 23.6352L23.7891 23.7344ZM26.7568 25.4629L26.8467 25.419L26.8467 25.419L26.7568 25.4629ZM26.9951 26.499L27.095 26.4936V26.4935L26.9951 26.499ZM26.8652 27.5498L26.9585 27.5858L26.9586 27.5857L26.8652 27.5498ZM26.7051 27.8457L26.7792 27.9128L26.7793 27.9128L26.7051 27.8457ZM26.3799 27.9805H26.2799V28.0805L26.3799 28.0805L26.3799 27.9805ZM26.3799 27.9795H26.4799V27.8638L26.3654 27.8805L26.3799 27.9795ZM25.8828 27.875L25.8121 27.9457L25.8123 27.9459L25.8828 27.875ZM25.7627 27.4609L25.6628 27.456L25.6628 27.456L25.7627 27.4609ZM25.833 26.9971L25.9313 27.0157L25.9313 27.0157L25.833 26.9971ZM25.8799 26.5908L25.9797 26.5857L25.9797 26.5856L25.8799 26.5908ZM25.042 25.2109L25.0923 25.1245L25.0923 25.1245L25.042 25.2109ZM23.1338 24.749L23.1392 24.6492L23.1392 24.6492L23.1338 24.749ZM19.0586 25.0713L19.0702 25.1706H19.0702L19.0586 25.0713ZM17.4961 25.3486L17.4753 25.2508H17.4753L17.4961 25.3486ZM15.877 25.6768L15.8939 25.7753L15.8939 25.7753L15.877 25.6768ZM12.6514 25.5908L12.6832 25.496L12.6808 25.4952L12.6514 25.5908ZM12.6387 25.5869H12.5387V25.6608L12.6093 25.6825L12.6387 25.5869ZM12.6387 25.5859H12.7387V25.5225L12.6813 25.4955L12.6387 25.5859ZM12.0234 25.0908L11.9406 25.1468L11.9406 25.1468L12.0234 25.0908ZM11.8359 24.4561L11.7359 24.4559V24.4559L11.8359 24.4561ZM12.3584 23.1621L12.2789 23.1015L12.2788 23.1015L12.3584 23.1621ZM12.7393 22.7725L12.6715 22.6989L12.6715 22.6989L12.7393 22.7725ZM13.2158 22.3262L13.2865 22.3969L13.2865 22.3969L13.2158 22.3262ZM13.584 21.8857L13.6698 21.937L13.6699 21.937L13.584 21.8857ZM13.6592 21.5918L13.756 21.5669L13.7496 21.5417L13.7316 21.5229L13.6592 21.5918ZM13.2354 21.4287L13.2461 21.3293L13.246 21.3293L13.2354 21.4287ZM12.3994 21.4648L12.3861 21.3657H12.3861L12.3994 21.4648ZM10.0811 21.9482L10.1037 22.0456H10.1037L10.0811 21.9482ZM7.6543 22.4033L7.6637 22.5029L7.6637 22.5029L7.6543 22.4033ZM6.66113 22.3984L6.64638 22.4973L6.64641 22.4973L6.66113 22.3984ZM5.9375 22.0957L5.86962 22.1691L5.86965 22.1692L5.9375 22.0957ZM5.55273 21.4766L5.45516 21.4985L5.45517 21.4985L5.55273 21.4766ZM5.6123 20.8564L5.5194 20.8194L5.51939 20.8195L5.6123 20.8564ZM6.45508 19.8633L6.39463 19.7836L6.39461 19.7836L6.45508 19.8633ZM10.4775 17.5391L10.5189 17.6301L10.5205 17.6293L10.4775 17.5391ZM10.498 17.5293V17.4293H10.4755L10.4551 17.439L10.498 17.5293ZM24.541 2.17676L24.5219 2.27494L24.5239 2.27529L24.541 2.17676ZM24.9795 2.4375L24.9008 2.49923L24.9012 2.49976L24.9795 2.4375ZM25.0996 2.6875L25.1983 2.67142L25.1983 2.67128L25.0996 2.6875ZM25.0664 2.92285L25.1577 2.96362L25.1578 2.9635L25.0664 2.92285ZM24.7764 3.25391L24.8396 3.33138L24.8396 3.33137L24.7764 3.25391ZM22.9307 4.7002L22.9919 4.77926V4.77926L22.9307 4.7002ZM16.9043 9.36719L16.8431 9.28812L16.843 9.28817L16.9043 9.36719ZM15.3643 10.5273L15.3087 10.4442L15.2083 10.5113L15.2929 10.5974L15.3643 10.5273ZM16.0762 11.3408L16.1535 11.2774L16.1535 11.2774L16.0762 11.3408ZM16.8701 12.3301L16.9482 12.2677L16.9482 12.2677L16.8701 12.3301ZM18.8154 14.7236L18.7358 14.7841L18.7992 14.8677L18.8797 14.8002L18.8154 14.7236ZM20.8994 13.1191L20.9598 13.1989L20.9598 13.1989L20.8994 13.1191ZM24.4658 10.4189L24.5262 10.4987L24.5265 10.4984L24.4658 10.4189ZM25.4473 9.66895L25.3872 9.58903L25.3865 9.58949L25.4473 9.66895ZM26.4482 8.91602L26.5085 8.99613L26.5139 8.99146L26.4482 8.91602ZM27.0693 8.69434L27.0921 8.59695L27.0918 8.5969L27.0693 8.69434ZM27.4678 9.23438L27.5665 9.21859L27.5665 9.21837L27.4678 9.23438ZM27.4385 9.41602L27.5295 9.45735L27.5296 9.45722L27.4385 9.41602ZM27.3369 9.57227L27.4141 9.63589L27.4141 9.63587L27.3369 9.57227ZM27.0273 9.86621L27.0902 9.94398L27.0902 9.94397L27.0273 9.86621ZM26.4385 10.293L26.3785 10.213L26.378 10.2133L26.4385 10.293ZM24.7471 11.5781L24.8074 11.6579L24.8076 11.6577L24.7471 11.5781ZM21.0723 14.3594L21.1323 14.4394L21.1326 14.4391L21.0723 14.3594ZM19.79 15.377L19.8519 15.4555L19.8519 15.4555L19.79 15.377ZM18.4873 16.291L18.5321 16.3804L18.5322 16.3804L18.4873 16.291ZM18.0928 16.4102L18.1156 16.5075L18.1156 16.5075L18.0928 16.4102ZM17.416 16.5488L17.4342 16.6472L17.4342 16.6472L17.416 16.5488ZM15.5391 16.8545L15.5538 16.9534H15.5538L15.5391 16.8545ZM12.3379 17.2627L12.3439 17.3625L12.3439 17.3625L12.3379 17.2627ZM11.6787 17.2041L11.7086 17.1086L11.7057 17.1078L11.6787 17.2041ZM11.6543 17.1973L11.5876 17.2718L11.6049 17.2873L11.6273 17.2936L11.6543 17.1973ZM11.6357 17.1807L11.7024 17.1061L11.7022 17.106L11.6357 17.1807ZM11.4902 16.8428L11.3904 16.8492L11.3904 16.8493L11.4902 16.8428ZM11.5312 16.5127L11.6265 16.5431L11.6267 16.5426L11.5312 16.5127ZM12.5127 13.9082L12.6062 13.9436L12.6062 13.9436L12.5127 13.9082ZM13.8418 10.4863L13.75 10.4466L13.75 10.4468L13.8418 10.4863ZM14.0312 10.2266L13.9607 10.1557L13.9607 10.1557L14.0312 10.2266ZM14.2568 10.0322L14.3182 10.1112L14.3182 10.1111L14.2568 10.0322ZM21.1416 4.70117L21.0803 4.62215L21.0803 4.62216L21.1416 4.70117ZM23.2422 3.07227L23.181 2.99316L23.1809 2.99324L23.2422 3.07227ZM23.8418 2.60156L23.7812 2.52205L23.7811 2.52206L23.8418 2.60156ZM24.4736 2.18457L24.4323 2.09353V2.09353L24.4736 2.18457ZM24.5059 2.16992L24.5249 2.07176L24.4936 2.06566L24.4645 2.07889L24.5059 2.16992ZM14.5312 11.1035L14.6229 11.1434L14.6232 11.1428L14.5312 11.1035ZM13.7656 13.0264L13.672 12.9911V12.9911L13.7656 13.0264ZM13.0234 14.9492L12.9309 14.9113L12.9309 14.9113L13.0234 14.9492ZM12.792 15.5762L12.8862 15.6097L12.8862 15.6097L12.792 15.5762ZM12.5596 16.1768L12.6507 16.218L12.6508 16.2178L12.5596 16.1768ZM12.4746 16.3643L12.3835 16.323L12.3099 16.4855L12.487 16.4635L12.4746 16.3643ZM12.6787 16.3389L12.6666 16.2396L12.6664 16.2396L12.6787 16.3389ZM15.7588 15.9346L15.7728 16.0336L15.7736 16.0335L15.7588 15.9346ZM16.9619 15.7549L16.9767 15.8538L16.9777 15.8536L16.9619 15.7549ZM18.1621 15.5498L18.18 15.6482L18.1801 15.6482L18.1621 15.5498ZM18.3545 15.5146L18.3725 15.613L18.5381 15.5828L18.4323 15.4518L18.3545 15.5146ZM18.2314 15.3623L18.3092 15.2995L18.309 15.2992L18.2314 15.3623ZM16.3994 13.0996L16.3218 13.1626V13.1626L16.3994 13.0996ZM15.2715 11.7158L15.3487 11.6522V11.6522L15.2715 11.7158ZM14.8906 11.2598L14.9669 11.1951L14.9669 11.1951L14.8906 11.2598ZM14.7754 11.126L14.7008 11.1925L14.7008 11.1925L14.7754 11.126ZM14.7383 11.085L14.8102 11.0154L14.8102 11.0154L14.7383 11.085ZM14.7227 11.0693L14.7905 10.9959L14.79 10.9954L14.7227 11.0693ZM14.6963 11.0498L14.6452 11.1357L14.6452 11.1358L14.6963 11.0498ZM14.583 10.9824L14.6341 10.8965L14.536 10.8381L14.4911 10.9431L14.583 10.9824ZM25.5713 28.6992L25.593 28.7968C25.9383 28.7199 26.2988 28.8356 26.5349 29.099L26.6094 29.0322L26.6838 28.9655C26.3995 28.6483 25.9655 28.509 25.5495 28.6016L25.5713 28.6992ZM26.6094 29.0322L26.5349 29.099C26.771 29.3623 26.8465 29.7326 26.7325 30.0674L26.8271 30.0996L26.9218 30.1318C27.0591 29.7287 26.9683 29.2827 26.6838 28.9655L26.6094 29.0322ZM26.8271 30.0996L26.7325 30.0674C26.6186 30.4022 26.3326 30.6496 25.9847 30.7142L26.0029 30.8125L26.0212 30.9108C26.4402 30.8331 26.7846 30.5351 26.9218 30.1318L26.8271 30.0996ZM26.0029 30.8125L25.9847 30.7142C25.4602 30.8114 24.9538 30.4704 24.847 29.9478L24.749 29.9678L24.651 29.9878C24.7797 30.6173 25.3895 31.028 26.0212 30.9108L26.0029 30.8125ZM24.749 29.9678L24.847 29.9478C24.7404 29.4253 25.0726 28.9131 25.5931 28.7968L25.5713 28.6992L25.5495 28.6016C24.9227 28.7416 24.5226 29.3583 24.651 29.9878L24.749 29.9678ZM10.5205 17.5293L10.5244 17.6292C10.6773 17.6233 10.8453 17.6667 10.9541 17.7539L11.0166 17.6758L11.0791 17.5977C10.9235 17.4731 10.7043 17.4221 10.5166 17.4294L10.5205 17.5293ZM11.0166 17.6758L10.954 17.7538C11.0093 17.7981 11.0503 17.8534 11.0658 17.9187L11.1631 17.8955L11.2604 17.8724C11.2319 17.7527 11.1591 17.6619 11.0792 17.5978L11.0166 17.6758ZM11.1631 17.8955L11.0658 17.9185C11.0813 17.9842 11.0711 18.0597 11.0283 18.1426L11.1172 18.1885L11.2061 18.2343C11.2658 18.1186 11.2891 17.9941 11.2604 17.8725L11.1631 17.8955ZM11.1172 18.1885L11.0284 18.1425C10.8752 18.4385 10.5288 18.6444 10.1595 18.8188L10.2021 18.9092L10.2448 18.9996C10.6114 18.8265 11.0184 18.5968 11.206 18.2345L11.1172 18.1885ZM10.2021 18.9092L10.1595 18.8187C9.97449 18.9061 9.781 18.9867 9.60251 19.067L9.64355 19.1582L9.6846 19.2494C9.85486 19.1728 10.059 19.0874 10.2448 18.9996L10.2021 18.9092ZM9.64355 19.1582L9.60251 19.067C9.42367 19.1475 9.25842 19.2284 9.12704 19.3163L9.18262 19.3994L9.2382 19.4825C9.35483 19.4046 9.50712 19.3293 9.6846 19.2494L9.64355 19.1582ZM9.18262 19.3994L9.12705 19.3163C9.02871 19.382 8.8034 19.5118 8.52816 19.6747L8.5791 19.7607L8.63004 19.8468C8.89916 19.6875 9.13378 19.5523 9.23819 19.4826L9.18262 19.3994ZM8.5791 19.7607L8.52816 19.6747C8.25194 19.8382 7.92293 20.0368 7.61606 20.2432L7.67188 20.3262L7.72769 20.4091C8.02958 20.2061 8.35453 20.0099 8.63004 19.8468L8.5791 19.7607ZM7.67188 20.3262L7.61606 20.2432C7.30905 20.4497 7.02398 20.6635 6.83478 20.8568L6.90625 20.9268L6.97772 20.9967C7.15204 20.8186 7.42306 20.6141 7.72769 20.4091L7.67188 20.3262ZM6.90625 20.9268L6.83476 20.8568C6.74063 20.9531 6.66989 21.0439 6.63266 21.1255L6.72363 21.167L6.8146 21.2085C6.83757 21.1582 6.88944 21.087 6.97774 20.9967L6.90625 20.9268ZM6.72363 21.167L6.6326 21.1256C6.60513 21.186 6.60225 21.2346 6.60815 21.2737L6.70703 21.2588L6.80591 21.2439C6.80561 21.2418 6.80538 21.2393 6.80596 21.2352C6.80658 21.2307 6.80847 21.222 6.81467 21.2084L6.72363 21.167ZM6.70703 21.2588L6.66256 21.3484C6.80782 21.4205 7.03147 21.45 7.30899 21.4408L7.30566 21.3408L7.30234 21.2409C7.03436 21.2498 6.85144 21.2188 6.7515 21.1692L6.70703 21.2588ZM7.30566 21.3408L7.30901 21.4408C7.60739 21.4308 7.95808 21.38 8.31342 21.3131L8.29492 21.2148L8.27643 21.1166C7.92474 21.1827 7.58565 21.2314 7.30232 21.2409L7.30566 21.3408ZM8.29492 21.2148L8.31342 21.3131C9.0254 21.1791 9.75573 20.9784 10.1333 20.8935L10.1113 20.7959L10.0894 20.6983C9.69589 20.7868 8.98606 20.983 8.27642 21.1166L8.29492 21.2148ZM10.1113 20.7959L10.1335 20.8934C10.6775 20.7694 11.2257 20.6614 11.7761 20.5703L11.7598 20.4717L11.7434 20.373C11.1891 20.4647 10.6369 20.5736 10.0891 20.6984L10.1113 20.7959ZM11.7598 20.4717L11.7761 20.5703C12.2418 20.4934 12.8982 20.4075 13.4719 20.4972L13.4873 20.3984L13.5028 20.2996C12.8945 20.2045 12.2102 20.2959 11.7435 20.373L11.7598 20.4717ZM13.4873 20.3984L13.4718 20.4972C13.7584 20.5422 14.0262 20.6313 14.2397 20.7877L14.2988 20.707L14.3579 20.6264C14.11 20.4448 13.8084 20.3476 13.5028 20.2996L13.4873 20.3984ZM14.2988 20.707L14.2397 20.7877C14.4538 20.9445 14.6135 21.1692 14.6837 21.4828L14.7812 21.4609L14.8788 21.4391C14.798 21.0779 14.6107 20.8116 14.3579 20.6264L14.2988 20.707ZM14.7812 21.4609L14.6836 21.4827C14.7518 21.7881 14.658 22.0766 14.485 22.3487L14.5693 22.4023L14.6537 22.456C14.8426 22.1591 14.9628 21.8155 14.8789 21.4392L14.7812 21.4609ZM14.5693 22.4023L14.485 22.3486C14.3122 22.6201 14.0593 22.8787 13.8036 23.1253L13.873 23.1973L13.9425 23.2692C14.1981 23.0226 14.4668 22.7496 14.6537 22.456L14.5693 22.4023ZM13.873 23.1973L13.8036 23.1253C13.547 23.3728 13.2869 23.6097 13.1008 23.8406L13.1787 23.9033L13.2566 23.9661C13.4323 23.7479 13.6783 23.524 13.9425 23.2692L13.873 23.1973ZM13.1787 23.9033L13.1008 23.8406C12.9223 24.0623 12.815 24.2742 12.8371 24.4823L12.9365 24.4717L13.036 24.4611C13.0226 24.3359 13.0855 24.1785 13.2566 23.9661L13.1787 23.9033ZM12.9365 24.4717L12.8531 24.5268C12.9115 24.6154 13.017 24.6846 13.166 24.7337L13.1973 24.6387L13.2285 24.5437C13.1019 24.502 13.044 24.453 13.02 24.4166L12.9365 24.4717ZM13.1973 24.6387L13.1661 24.7337C13.3252 24.7859 13.5293 24.8154 13.7648 24.8265L13.7695 24.7266L13.7742 24.6267C13.5474 24.616 13.3634 24.588 13.2285 24.5437L13.1973 24.6387ZM13.7695 24.7266L13.7648 24.8265C14.2368 24.8486 14.8327 24.7976 15.4402 24.7153L15.4268 24.6162L15.4133 24.5171C14.8095 24.5989 14.2278 24.6479 13.7742 24.6267L13.7695 24.7266ZM15.4268 24.6162L15.4402 24.7153C16.6556 24.5506 17.9169 24.2603 18.3327 24.1833L18.3145 24.085L18.2962 23.9866C17.8668 24.0662 16.6231 24.3531 15.4133 24.5171L15.4268 24.6162ZM18.3145 24.085L18.3329 24.1833C18.9821 24.0616 19.6363 23.9649 20.2931 23.8934L20.2822 23.7939L20.2714 23.6945C19.6096 23.7667 18.9504 23.8641 18.296 23.9867L18.3145 24.085ZM20.2822 23.7939L20.293 23.8934C21.2065 23.7944 22.5416 23.6703 23.776 23.8335L23.7891 23.7344L23.8022 23.6352C22.5415 23.4685 21.1848 23.5955 20.2715 23.6945L20.2822 23.7939ZM23.7891 23.7344L23.7759 23.8335C25.0098 23.9969 26.1504 24.4488 26.667 25.5068L26.7568 25.4629L26.8467 25.419C26.2846 24.268 25.0555 23.8012 23.8022 23.6352L23.7891 23.7344ZM26.7568 25.4629L26.667 25.5067C26.7975 25.7743 26.8752 26.1391 26.8953 26.5045L26.9951 26.499L27.095 26.4935C27.074 26.1113 26.9926 25.7181 26.8467 25.419L26.7568 25.4629ZM26.9951 26.499L26.8953 26.5045C26.9153 26.8699 26.8777 27.2387 26.7719 27.5139L26.8652 27.5498L26.9586 27.5857C27.0781 27.2749 27.1159 26.8752 27.095 26.4936L26.9951 26.499ZM26.8652 27.5498L26.7719 27.5139C26.7305 27.6213 26.6892 27.7141 26.6309 27.7786L26.7051 27.8457L26.7793 27.9128C26.8654 27.8175 26.9177 27.6918 26.9585 27.5858L26.8652 27.5498ZM26.7051 27.8457L26.631 27.7786C26.5717 27.844 26.494 27.8804 26.3798 27.8805L26.3799 27.9805L26.3799 28.0805C26.5446 28.0804 26.6782 28.0243 26.7792 27.9128L26.7051 27.8457ZM26.3799 27.9805H26.4799V27.9795H26.3799H26.2799V27.9805H26.3799ZM26.3799 27.9795L26.3654 27.8805C26.1596 27.9107 26.0302 27.8806 25.9534 27.8041L25.8828 27.875L25.8123 27.9459C25.957 28.0899 26.1679 28.1116 26.3944 28.0784L26.3799 27.9795ZM25.8828 27.875L25.9535 27.8043C25.8747 27.7254 25.8558 27.6031 25.8626 27.4659L25.7627 27.4609L25.6628 27.456C25.6555 27.6047 25.6699 27.8035 25.8121 27.9457L25.8828 27.875ZM25.7627 27.4609L25.8626 27.4659C25.8694 27.3279 25.9022 27.1692 25.9313 27.0157L25.833 26.9971L25.7348 26.9785C25.7071 27.1247 25.6705 27.3006 25.6628 27.456L25.7627 27.4609ZM25.833 26.9971L25.9313 27.0157C25.9604 26.8614 25.9862 26.7107 25.9797 26.5857L25.8799 26.5908L25.78 26.596C25.785 26.693 25.7647 26.8201 25.7347 26.9785L25.833 26.9971ZM25.8799 26.5908L25.9797 26.5856C25.9432 25.8862 25.6055 25.4234 25.0923 25.1245L25.042 25.2109L24.9917 25.2973C25.4516 25.5652 25.7473 25.9697 25.78 26.596L25.8799 26.5908ZM25.042 25.2109L25.0923 25.1245C24.578 24.8251 23.885 24.6895 23.1392 24.6492L23.1338 24.749L23.1284 24.8489C23.8623 24.8886 24.5178 25.0215 24.9917 25.2974L25.042 25.2109ZM23.1338 24.749L23.1392 24.6492C21.6478 24.5686 19.9495 24.8662 19.047 24.972L19.0586 25.0713L19.0702 25.1706C19.9904 25.0627 21.6596 24.7696 23.1284 24.8489L23.1338 24.749ZM19.0586 25.0713L19.047 24.972C18.5361 25.0318 18.009 25.1374 17.4753 25.2508L17.4961 25.3486L17.5169 25.4464C18.0502 25.3331 18.5694 25.2293 19.0702 25.1706L19.0586 25.0713ZM17.4961 25.3486L17.4753 25.2508C16.9421 25.3641 16.4003 25.4852 15.86 25.5782L15.877 25.6768L15.8939 25.7753C16.4392 25.6814 16.9866 25.5591 17.5169 25.4464L17.4961 25.3486ZM15.877 25.6768L15.86 25.5782C14.7787 25.7643 13.697 25.8367 12.6832 25.496L12.6514 25.5908L12.6195 25.6856C13.6813 26.0424 14.8031 25.9631 15.8939 25.7753L15.877 25.6768ZM12.6514 25.5908L12.6808 25.4952L12.6681 25.4913L12.6387 25.5869L12.6093 25.6825L12.622 25.6864L12.6514 25.5908ZM12.6387 25.5869H12.7387V25.5859H12.6387H12.5387V25.5869H12.6387ZM12.6387 25.5859L12.6813 25.4955C12.4134 25.3694 12.226 25.2118 12.1063 25.0348L12.0234 25.0908L11.9406 25.1468C12.0844 25.3595 12.3027 25.5383 12.5961 25.6764L12.6387 25.5859ZM12.0234 25.0908L12.1063 25.0349C11.9869 24.858 11.9356 24.6609 11.9359 24.4562L11.8359 24.4561L11.7359 24.4559C11.7355 24.6955 11.7961 24.9327 11.9406 25.1468L12.0234 25.0908ZM11.8359 24.4561L11.9359 24.4562C11.9367 24.0478 12.1451 23.6074 12.438 23.2227L12.3584 23.1621L12.2788 23.1015C11.9738 23.5023 11.7368 23.985 11.7359 24.4559L11.8359 24.4561ZM12.3584 23.1621L12.4379 23.2227C12.5191 23.1162 12.6547 22.9865 12.807 22.846L12.7393 22.7725L12.6715 22.6989C12.5217 22.8371 12.3725 22.9786 12.2789 23.1015L12.3584 23.1621ZM12.7393 22.7725L12.807 22.846C12.9598 22.7051 13.1312 22.552 13.2865 22.3969L13.2158 22.3262L13.1452 22.2554C12.9936 22.4067 12.8275 22.5551 12.6715 22.6989L12.7393 22.7725ZM13.2158 22.3262L13.2865 22.3969C13.4418 22.2418 13.5814 22.0849 13.6698 21.937L13.584 21.8857L13.4981 21.8344C13.423 21.9603 13.2978 22.1029 13.1452 22.2554L13.2158 22.3262ZM13.584 21.8857L13.6699 21.937C13.7527 21.7982 13.7837 21.6746 13.756 21.5669L13.6592 21.5918L13.5623 21.6167C13.571 21.6504 13.5682 21.7171 13.4981 21.8345L13.584 21.8857ZM13.6592 21.5918L13.7316 21.5229C13.6313 21.4174 13.4686 21.3533 13.2461 21.3293L13.2354 21.4287L13.2246 21.5281C13.4252 21.5498 13.533 21.6043 13.5867 21.6607L13.6592 21.5918ZM13.2354 21.4287L13.246 21.3293C13.0119 21.3041 12.7186 21.3211 12.3861 21.3657L12.3994 21.4648L12.4127 21.564C12.7393 21.5201 13.0141 21.5055 13.2247 21.5281L13.2354 21.4287ZM12.3994 21.4648L12.3861 21.3657C11.7208 21.455 10.8967 21.6557 10.0584 21.8508L10.0811 21.9482L10.1037 22.0456C10.9475 21.8492 11.7595 21.6517 12.4127 21.564L12.3994 21.4648ZM10.0811 21.9482L10.0584 21.8508C9.22062 22.0459 8.36729 22.2355 7.64489 22.3038L7.6543 22.4033L7.6637 22.5029C8.40163 22.4332 9.26781 22.2403 10.1037 22.0456L10.0811 21.9482ZM7.6543 22.4033L7.6449 22.3038C7.28413 22.3378 6.9548 22.341 6.67585 22.2995L6.66113 22.3984L6.64641 22.4973C6.9475 22.5422 7.29455 22.5377 7.6637 22.5029L7.6543 22.4033ZM6.66113 22.3984L6.67589 22.2995C6.39693 22.2579 6.16635 22.1709 6.00535 22.0222L5.9375 22.0957L5.86965 22.1692C6.07169 22.3558 6.34681 22.4527 6.64638 22.4973L6.66113 22.3984ZM5.9375 22.0957L6.00538 22.0223C5.80478 21.8368 5.69321 21.6456 5.6503 21.4546L5.55273 21.4766L5.45517 21.4985C5.50864 21.7364 5.64536 21.9618 5.86962 22.1691L5.9375 22.0957ZM5.55273 21.4766L5.65031 21.4547C5.60746 21.2637 5.63315 21.0746 5.70522 20.8934L5.6123 20.8564L5.51939 20.8195C5.43547 21.0304 5.40185 21.2609 5.45516 21.4985L5.55273 21.4766ZM5.6123 20.8564L5.7052 20.8935C5.84942 20.5314 6.17871 20.1986 6.51555 19.9429L6.45508 19.8633L6.39461 19.7836C6.04779 20.0469 5.68378 20.4068 5.5194 20.8194L5.6123 20.8564ZM6.45508 19.8633L6.51553 19.9429C7.74546 19.0096 9.11502 18.2674 10.5189 17.6301L10.4775 17.5391L10.4362 17.448C9.0243 18.0889 7.64042 18.8382 6.39463 19.7836L6.45508 19.8633ZM10.4775 17.5391L10.5205 17.6293L10.541 17.6196L10.498 17.5293L10.4551 17.439L10.4345 17.4488L10.4775 17.5391ZM10.498 17.5293V17.6293H10.5205V17.5293V17.4293H10.498V17.5293ZM24.541 2.17676L24.5239 2.27529C24.6733 2.30117 24.8078 2.38069 24.9008 2.49923L24.9795 2.4375L25.0582 2.37577C24.9341 2.21762 24.7553 2.11241 24.5581 2.07823L24.541 2.17676ZM24.9795 2.4375L24.9012 2.49976C24.9585 2.57167 24.9905 2.64004 25.0009 2.70372L25.0996 2.6875L25.1983 2.67128C25.1809 2.5655 25.1302 2.46626 25.0577 2.37524L24.9795 2.4375ZM25.0996 2.6875L25.0009 2.70358C25.0112 2.76652 25.0001 2.82589 24.975 2.8822L25.0664 2.92285L25.1578 2.9635C25.1956 2.87841 25.2159 2.77954 25.1983 2.67142L25.0996 2.6875ZM25.0664 2.92285L24.9751 2.88208C24.9259 2.99222 24.8206 3.0887 24.7131 3.17644L24.7764 3.25391L24.8396 3.33137C24.9455 3.24493 25.087 3.12205 25.1577 2.96362L25.0664 2.92285ZM24.7764 3.25391L24.7131 3.17643C24.1087 3.66969 23.486 4.14361 22.8694 4.62113L22.9307 4.7002L22.9919 4.77926C23.6067 4.30314 24.2326 3.82676 24.8396 3.33138L24.7764 3.25391ZM22.9307 4.7002L22.8694 4.62113L16.8431 9.28812L16.9043 9.36719L16.9655 9.44625L22.9919 4.77926L22.9307 4.7002ZM16.9043 9.36719L16.843 9.28817C16.3933 9.63698 15.798 10.1171 15.3087 10.4442L15.3643 10.5273L15.4198 10.6105C15.9169 10.2782 16.5214 9.79073 16.9656 9.44621L16.9043 9.36719ZM15.3643 10.5273L15.2929 10.5974C15.4883 10.7963 15.7458 11.0961 15.9989 11.4043L16.0762 11.3408L16.1535 11.2774C15.8997 10.9684 15.6375 10.6629 15.4356 10.4573L15.3643 10.5273ZM16.0762 11.3408L15.9989 11.4043C16.2995 11.7704 16.5991 12.151 16.792 12.3925L16.8701 12.3301L16.9482 12.2677C16.7566 12.0278 16.4552 11.6448 16.1535 11.2774L16.0762 11.3408ZM16.8701 12.3301L16.792 12.3925C17.4044 13.1592 18.1428 14.0024 18.7358 14.7841L18.8154 14.7236L18.8951 14.6632C18.3022 13.8817 17.5503 13.0214 16.9482 12.2677L16.8701 12.3301ZM18.8154 14.7236L18.8797 14.8002C19.5231 14.2605 20.2952 13.702 20.9598 13.1989L20.8994 13.1191L20.8391 13.0394C20.1797 13.5386 19.3996 14.103 18.7512 14.647L18.8154 14.7236ZM20.8994 13.1191L20.9598 13.1989L24.5262 10.4987L24.4658 10.4189L24.4055 10.3392L20.8391 13.0394L20.8994 13.1191ZM24.4658 10.4189L24.5265 10.4984L25.508 9.7484L25.4473 9.66895L25.3865 9.58949L24.4051 10.3395L24.4658 10.4189ZM25.4473 9.66895L25.5074 9.74886L26.5084 8.99593L26.4482 8.91602L26.3881 8.8361L25.3872 9.58903L25.4473 9.66895ZM26.4482 8.91602L26.5139 8.99146C26.7 8.82953 26.8899 8.75552 27.0468 8.79177L27.0693 8.69434L27.0918 8.5969C26.842 8.5392 26.5873 8.66252 26.3826 8.84057L26.4482 8.91602ZM27.0693 8.69434L27.0466 8.79172C27.2067 8.82906 27.3252 8.97971 27.3691 9.25038L27.4678 9.23438L27.5665 9.21837C27.5168 8.91193 27.3672 8.66112 27.0921 8.59695L27.0693 8.69434ZM27.4678 9.23438L27.369 9.25016C27.3754 9.28987 27.3664 9.33271 27.3474 9.37481L27.4385 9.41602L27.5296 9.45722C27.5588 9.39266 27.581 9.30915 27.5665 9.21859L27.4678 9.23438ZM27.4385 9.41602L27.3474 9.37468C27.3279 9.41767 27.2973 9.46305 27.2597 9.50866L27.3369 9.57227L27.4141 9.63587C27.4582 9.58238 27.5002 9.52188 27.5295 9.45735L27.4385 9.41602ZM27.3369 9.57227L27.2598 9.50864C27.1843 9.60012 27.0778 9.69681 26.9645 9.78845L27.0273 9.86621L27.0902 9.94397C27.2075 9.84918 27.326 9.74266 27.4141 9.63589L27.3369 9.57227ZM27.0273 9.86621L26.9645 9.78844C26.7385 9.97106 26.4784 10.138 26.3785 10.213L26.4385 10.293L26.4985 10.373C26.5744 10.316 26.8666 10.1247 27.0902 9.94398L27.0273 9.86621ZM26.4385 10.293L26.378 10.2133L24.6866 11.4985L24.7471 11.5781L24.8076 11.6577L26.499 10.3726L26.4385 10.293ZM24.7471 11.5781L24.6867 11.4984L21.0119 14.2796L21.0723 14.3594L21.1326 14.4391L24.8074 11.6579L24.7471 11.5781ZM21.0723 14.3594L21.0123 14.2794C20.7008 14.513 20.2147 14.9157 19.7282 15.2984L19.79 15.377L19.8519 15.4555C20.3459 15.0669 20.8223 14.6719 21.1323 14.4394L21.0723 14.3594ZM19.79 15.377L19.7282 15.2984C19.2425 15.6804 18.7544 16.0448 18.4424 16.2017L18.4873 16.291L18.5322 16.3804C18.8657 16.2127 19.3701 15.8345 19.8519 15.4555L19.79 15.377ZM18.4873 16.291L18.4425 16.2016C18.3787 16.2335 18.2481 16.271 18.07 16.3128L18.0928 16.4102L18.1156 16.5075C18.2895 16.4668 18.4437 16.4247 18.5321 16.3804L18.4873 16.291ZM18.0928 16.4102L18.07 16.3128C17.8909 16.3547 17.6612 16.4018 17.3978 16.4505L17.416 16.5488L17.4342 16.6472C17.6994 16.5982 17.9324 16.5504 18.1156 16.5075L18.0928 16.4102ZM17.416 16.5488L17.3979 16.4505C16.8698 16.548 16.2024 16.6544 15.5243 16.7556L15.5391 16.8545L15.5538 16.9534C16.2328 16.8521 16.9028 16.7453 17.4342 16.6472L17.416 16.5488ZM15.5391 16.8545L15.5243 16.7556C14.1682 16.9579 12.7641 17.1367 12.3318 17.1629L12.3379 17.2627L12.3439 17.3625C12.7865 17.3357 14.1994 17.1555 15.5538 16.9534L15.5391 16.8545ZM12.3379 17.2627L12.3319 17.1629C12.1228 17.1755 11.913 17.1728 11.7086 17.1087L11.6787 17.2041L11.6488 17.2995C11.8883 17.3746 12.1271 17.3756 12.3439 17.3625L12.3379 17.2627ZM11.6787 17.2041L11.7057 17.1078L11.6813 17.101L11.6543 17.1973L11.6273 17.2936L11.6517 17.3004L11.6787 17.2041ZM11.6543 17.1973L11.721 17.1227L11.7024 17.1061L11.6357 17.1807L11.5691 17.2552L11.5876 17.2718L11.6543 17.1973ZM11.6357 17.1807L11.7022 17.106C11.628 17.0399 11.5968 16.9393 11.59 16.8362L11.4902 16.8428L11.3904 16.8493C11.3989 16.9776 11.4393 17.1397 11.5693 17.2554L11.6357 17.1807ZM11.4902 16.8428L11.59 16.8363C11.5833 16.7331 11.6002 16.6257 11.6265 16.5431L11.5312 16.5127L11.436 16.4823C11.4029 16.586 11.382 16.7184 11.3904 16.8492L11.4902 16.8428ZM11.5312 16.5127L11.6267 16.5426C11.9035 15.6582 12.2794 14.8075 12.6062 13.9436L12.5127 13.9082L12.4192 13.8728C12.0977 14.7225 11.7148 15.5917 11.4358 16.4828L11.5312 16.5127ZM12.5127 13.9082L12.6062 13.9436C13.0377 12.8032 13.4508 11.6469 13.9336 10.5259L13.8418 10.4863L13.75 10.4468C13.2647 11.5733 12.8488 12.7371 12.4192 13.8728L12.5127 13.9082ZM13.8418 10.4863L13.9336 10.526C13.9687 10.445 14.0317 10.3672 14.1018 10.2974L14.0312 10.2266L13.9607 10.1557C13.8832 10.2329 13.7998 10.3317 13.75 10.4466L13.8418 10.4863ZM14.0312 10.2266L14.1018 10.2975C14.1721 10.2275 14.2509 10.1636 14.3182 10.1112L14.2568 10.0322L14.1954 9.9533C14.1263 10.0071 14.0398 10.077 13.9607 10.1557L14.0312 10.2266ZM14.2568 10.0322L14.3182 10.1111C16.6088 8.32888 18.9097 6.55891 21.2029 4.78019L21.1416 4.70117L21.0803 4.62216C18.7883 6.39993 16.4857 8.1712 14.1954 9.9533L14.2568 10.0322ZM21.1416 4.70117L21.2029 4.7802L23.3035 3.15129L23.2422 3.07227L23.1809 2.99324L21.0803 4.62215L21.1416 4.70117ZM23.2422 3.07227L23.3034 3.15137C23.4513 3.03697 23.6791 2.85142 23.9025 2.68107L23.8418 2.60156L23.7811 2.52206C23.5619 2.68931 23.3184 2.88691 23.181 2.99316L23.2422 3.07227ZM23.8418 2.60156L23.9024 2.68107C24.1269 2.5099 24.3552 2.34827 24.515 2.27561L24.4736 2.18457L24.4323 2.09353C24.2487 2.17697 24.0032 2.35267 23.7812 2.52205L23.8418 2.60156ZM24.4736 2.18457L24.515 2.27561L24.5472 2.26096L24.5059 2.16992L24.4645 2.07889L24.4323 2.09353L24.4736 2.18457ZM24.5059 2.16992L24.4868 2.26808L24.5219 2.27492L24.541 2.17676L24.5601 2.0786L24.5249 2.07176L24.5059 2.16992ZM14.5312 11.1035L14.4396 11.0636C14.1612 11.7029 13.9141 12.3485 13.672 12.9911L13.7656 13.0264L13.8592 13.0616C14.1012 12.4193 14.3468 11.7777 14.6229 11.1434L14.5312 11.1035ZM13.7656 13.0264L13.672 12.9911C13.4295 13.6351 13.1915 14.2753 12.9309 14.9113L13.0234 14.9492L13.116 14.9871C13.378 14.3478 13.6172 13.7043 13.8592 13.0616L13.7656 13.0264ZM13.0234 14.9492L12.9309 14.9113C12.85 15.1087 12.7729 15.3318 12.6978 15.5426L12.792 15.5762L12.8862 15.6097C12.9624 15.3959 13.0374 15.1789 13.116 14.9871L13.0234 14.9492ZM12.792 15.5762L12.6978 15.5426C12.6214 15.757 12.5468 15.9615 12.4684 16.1357L12.5596 16.1768L12.6508 16.2178C12.733 16.0352 12.8101 15.8235 12.8862 15.6097L12.792 15.5762ZM12.5596 16.1768L12.4685 16.1355L12.3835 16.323L12.4746 16.3643L12.5657 16.4055L12.6507 16.218L12.5596 16.1768ZM12.4746 16.3643L12.487 16.4635L12.6911 16.4381L12.6787 16.3389L12.6664 16.2396L12.4623 16.265L12.4746 16.3643ZM12.6787 16.3389L12.6908 16.4381C13.7192 16.313 14.7469 16.1783 15.7728 16.0336L15.7588 15.9346L15.7448 15.8356C14.7203 15.98 13.6938 16.1147 12.6666 16.2396L12.6787 16.3389ZM15.7588 15.9346L15.7736 16.0335L16.9767 15.8538L16.9619 15.7549L16.9471 15.656L15.744 15.8357L15.7588 15.9346ZM16.9619 15.7549L16.9777 15.8536C17.379 15.7893 17.7801 15.7208 18.18 15.6482L18.1621 15.5498L18.1442 15.4514C17.7457 15.5238 17.346 15.5921 16.9461 15.6561L16.9619 15.7549ZM18.1621 15.5498L18.1801 15.6482L18.3725 15.613L18.3545 15.5146L18.3365 15.4163L18.1441 15.4514L18.1621 15.5498ZM18.3545 15.5146L18.4323 15.4518L18.3092 15.2995L18.2314 15.3623L18.1537 15.4251L18.2767 15.5775L18.3545 15.5146ZM18.2314 15.3623L18.309 15.2992C18.154 15.1085 17.304 14.0554 16.4771 13.0366L16.3994 13.0996L16.3218 13.1626C17.1474 14.1798 17.9995 15.2355 18.1538 15.4254L18.2314 15.3623ZM16.3994 13.0996L16.4771 13.0366C16.0643 12.5281 15.6581 12.0278 15.3487 11.6522L15.2715 11.7158L15.1943 11.7794C15.5032 12.1543 15.9089 12.654 16.3218 13.1626L16.3994 13.0996ZM15.2715 11.7158L15.3487 11.6522C15.194 11.4645 15.0622 11.3074 14.9669 11.1951L14.8906 11.2598L14.8144 11.3244C14.909 11.4361 15.0402 11.5924 15.1943 11.7794L15.2715 11.7158ZM14.8906 11.2598L14.9669 11.1951C14.9198 11.1395 14.8799 11.0929 14.85 11.0594L14.7754 11.126L14.7008 11.1925C14.7287 11.2239 14.7671 11.2687 14.8144 11.3244L14.8906 11.2598ZM14.7754 11.126L14.85 11.0594C14.8371 11.045 14.8222 11.0279 14.8102 11.0154L14.7383 11.085L14.6664 11.1545C14.6747 11.1631 14.6852 11.1751 14.7008 11.1925L14.7754 11.126ZM14.7383 11.085L14.8102 11.0154C14.8059 11.011 14.7981 11.0029 14.7905 10.9959L14.7227 11.0693L14.6548 11.1428C14.6573 11.1451 14.6607 11.1486 14.6664 11.1545L14.7383 11.085ZM14.7227 11.0693L14.79 10.9954C14.7837 10.9897 14.7677 10.9759 14.7473 10.9638L14.6963 11.0498L14.6452 11.1358C14.647 11.1368 14.6492 11.1384 14.6516 11.1402C14.6539 11.142 14.6553 11.1433 14.6553 11.1433L14.7227 11.0693ZM14.6963 11.0498L14.7474 10.9639L14.6341 10.8965L14.583 10.9824L14.5319 11.0684L14.6452 11.1357L14.6963 11.0498ZM14.583 10.9824L14.4911 10.9431L14.4393 11.0642L14.5312 11.1035L14.6232 11.1428L14.675 11.0217L14.583 10.9824Z" fill="black"/>
</svg>
