<svg width="33" height="33" viewBox="0 0 33 33" fill="none" xmlns="http://www.w3.org/2000/svg">
<path d="M6.68091 5.79824C8.20225 5.35585 9.79938 5.68256 11.1585 6.4457C13.0328 7.49858 14.5033 9.26961 15.5286 11.1361C15.6838 11.4187 16.0304 12.0679 16.1155 12.3588C16.2411 12.1596 16.5885 11.5988 16.7317 11.4496L16.7308 11.4486C16.8229 11.2849 17.4057 10.5016 17.5355 10.3832L17.5364 10.3822C17.7797 10.0292 18.2445 9.51897 18.5384 9.20059C19.942 7.68015 21.7855 6.24019 23.8617 5.85098C25.0252 5.63297 26.1894 5.70343 27.1898 6.39297C27.3993 6.53984 27.5925 6.70593 27.7669 6.88809C27.8105 6.93358 27.8527 6.98028 27.8939 7.02774C27.9764 7.12273 28.0545 7.22134 28.1273 7.32364C28.1638 7.37485 28.1988 7.42698 28.2328 7.47989C28.3005 7.58546 28.363 7.69433 28.4203 7.80606C28.5063 7.97389 28.5808 8.14796 28.6419 8.32754C28.377 7.54988 27.8704 6.87011 27.1898 6.39297C27.146 6.36276 27.1005 6.33392 27.056 6.30605C27.1009 6.33407 27.1475 6.36153 27.1917 6.39199C28.0291 6.97918 28.6027 7.87346 28.7875 8.8793C29.0274 10.1871 28.6592 11.6687 28.2035 12.894C28.1324 13.0854 27.9884 13.4736 27.9017 13.6479C27.196 15.3095 26.2168 16.9118 25.1605 18.3715C24.8531 18.7961 24.4593 19.3498 24.1165 19.7465C23.2627 20.8275 22.3398 21.8537 21.3548 22.8168C21.0871 23.0766 20.8064 23.3607 20.5228 23.5991C20.88 23.6347 21.2744 23.7378 21.6312 23.7983C23.0903 24.0447 24.5257 24.1304 26.0062 24.1704C26.5587 24.1861 26.7192 24.7843 26.3099 25.1215C26.1608 25.2435 25.5348 25.1953 25.3001 25.1928C23.3896 25.1736 21.4299 24.871 19.5804 24.4545C19.4368 24.5452 19.1509 24.7849 19.0052 24.8979C18.6634 25.1627 18.3136 25.4186 17.9573 25.6635C16.6596 26.5398 14.6442 27.6502 13.0589 27.351C10.7165 26.9076 11.7395 22.9877 12.0413 21.4741C11.9885 21.4519 11.9354 21.4272 11.885 21.3998C11.3381 21.1036 10.6015 20.6029 10.0833 20.2407C7.40106 18.3654 4.67831 15.6748 3.68871 12.476C3.2459 11.0437 3.35086 9.20682 4.07543 7.88028C4.63106 6.86661 5.56947 6.11587 6.68091 5.79824ZM12.9905 22.0014C12.9384 22.369 12.8051 22.7592 12.761 23.1391C12.6771 23.8661 12.282 26.0127 13.2151 26.3129C13.7112 26.4714 14.2469 25.966 14.5462 25.5815C15.1527 24.7418 15.2645 24.0887 15.638 23.2241C14.7466 22.8575 13.831 22.4792 12.9905 22.0014ZM16.6175 23.5649C16.4241 24.2345 16.1375 24.88 15.8352 25.5073C15.7958 25.589 15.753 25.6715 15.7181 25.7553C16.1166 25.5594 16.4378 25.3892 16.8177 25.1499C17.1225 24.9544 17.4246 24.7521 17.721 24.5444C17.8785 24.4322 18.1456 24.2222 18.3001 24.1313C17.9164 24.0285 16.9658 23.7327 16.6175 23.5649ZM26.7699 7.38614C26.1386 6.85951 25.2899 6.71744 24.4886 6.8207C21.8809 7.157 19.8252 9.16883 18.2513 11.1303C18.0991 11.3396 17.6833 11.9714 17.5228 12.1244L17.5208 12.1215V12.1235C17.2139 12.5868 16.869 13.0903 16.5931 13.5707C17.554 16.4823 17.6592 19.6091 16.8958 22.5786C17.7031 22.8603 18.4748 23.0491 19.2523 23.31C19.5759 23.0869 20.1188 22.5444 20.4085 22.2621C21.1379 21.5516 21.8288 20.8244 22.4935 20.0532C22.7061 19.8062 23.014 19.3963 23.2103 19.1909L23.2122 19.1889C23.5816 18.6935 23.9609 18.2378 24.3314 17.7231C25.4063 16.2529 26.3145 14.6673 27.0394 12.9965C27.7307 11.2665 28.4892 8.82155 26.7699 7.38614ZM15.8401 14.8608C15.1288 16.2642 14.5638 17.4515 13.9895 18.9223C13.8203 19.3575 13.6625 19.7989 13.5169 20.2426C13.4551 20.4256 13.3381 20.8067 13.2649 20.9711C13.6476 21.1628 14.0435 21.3676 14.43 21.5483C14.8564 21.7526 15.523 22.0165 15.9046 22.2182C16.3956 19.7872 16.5964 17.3229 15.886 14.9067C15.881 14.8943 15.8514 14.8691 15.8401 14.8608ZM7.93873 6.6459C7.03653 6.69809 6.0341 7.03316 5.47387 7.74551C2.82233 11.1224 5.9536 15.4074 8.57252 17.7045C9.65881 18.6573 10.9603 19.6653 12.1555 20.3295L12.3518 20.4575C12.5081 19.8688 12.8087 19.0372 13.0305 18.4731C13.6737 16.8379 14.5139 14.9384 15.4476 13.4526C14.4711 10.9166 12.6261 8.26523 10.0891 7.09805C9.48766 6.82151 8.60594 6.59809 7.93873 6.6459Z" fill="black"/>
<path d="M27.1898 6.39297C26.1894 5.70343 25.0252 5.63297 23.8617 5.85098C21.7855 6.24019 19.942 7.68015 18.5384 9.20059C18.2445 9.51897 17.7797 10.0292 17.5364 10.3822L17.5355 10.3832C17.4057 10.5016 16.8229 11.2849 16.7308 11.4486L16.7317 11.4496C16.5885 11.5988 16.2411 12.1596 16.1155 12.3588C16.0304 12.0679 15.6838 11.4187 15.5286 11.1361C14.5033 9.26961 13.0328 7.49858 11.1585 6.4457C9.79938 5.68256 8.20225 5.35585 6.68091 5.79824C5.56947 6.11587 4.63106 6.86661 4.07543 7.88028C3.35086 9.20682 3.2459 11.0437 3.68871 12.476C4.67831 15.6748 7.40106 18.3654 10.0833 20.2407C10.6015 20.6029 11.3381 21.1036 11.885 21.3998C11.9354 21.4272 11.9885 21.4519 12.0413 21.4741C11.7395 22.9877 10.7165 26.9076 13.0589 27.351C14.6442 27.6502 16.6596 26.5398 17.9573 25.6635C18.3136 25.4186 18.6634 25.1627 19.0052 24.8979C19.1509 24.7849 19.4368 24.5452 19.5804 24.4545C21.4299 24.871 23.3896 25.1736 25.3001 25.1928C25.5348 25.1953 26.1608 25.2435 26.3099 25.1215C26.7192 24.7843 26.5587 24.1861 26.0062 24.1704C24.5257 24.1304 23.0903 24.0447 21.6312 23.7983C21.2744 23.7378 20.88 23.6347 20.5228 23.5991C20.8064 23.3607 21.0871 23.0766 21.3548 22.8168C22.3398 21.8537 23.2627 20.8275 24.1165 19.7465C24.4593 19.3498 24.8531 18.7961 25.1605 18.3715C26.2168 16.9118 27.196 15.3095 27.9017 13.6479C27.9884 13.4736 28.1324 13.0854 28.2035 12.894C28.6592 11.6687 29.0274 10.1871 28.7875 8.8793C28.6027 7.87346 28.0291 6.97918 27.1917 6.39199C27.1475 6.36153 27.1009 6.33407 27.056 6.30605C27.1005 6.33392 27.146 6.36276 27.1898 6.39297ZM27.1898 6.39297C27.3993 6.53984 27.5925 6.70593 27.7669 6.88809C27.8105 6.93358 27.8527 6.98028 27.8939 7.02774C27.9764 7.12273 28.0545 7.22134 28.1273 7.32364C28.1638 7.37485 28.1988 7.42698 28.2328 7.47989C28.3005 7.58546 28.363 7.69433 28.4203 7.80606C28.5063 7.97389 28.5808 8.14796 28.6419 8.32754C28.377 7.54988 27.8704 6.87011 27.1898 6.39297ZM12.9905 22.0014C12.9384 22.369 12.8051 22.7592 12.761 23.1391C12.6771 23.8661 12.282 26.0127 13.2151 26.3129C13.7112 26.4714 14.2469 25.966 14.5462 25.5815C15.1527 24.7418 15.2645 24.0887 15.638 23.2241C14.7466 22.8575 13.831 22.4792 12.9905 22.0014ZM16.6175 23.5649C16.4241 24.2345 16.1375 24.88 15.8352 25.5073C15.7958 25.589 15.753 25.6715 15.7181 25.7553C16.1166 25.5594 16.4378 25.3892 16.8177 25.1499C17.1225 24.9544 17.4246 24.7521 17.721 24.5444C17.8785 24.4322 18.1456 24.2222 18.3001 24.1313C17.9164 24.0285 16.9658 23.7327 16.6175 23.5649ZM26.7699 7.38614C26.1386 6.85951 25.2899 6.71744 24.4886 6.8207C21.8809 7.157 19.8252 9.16883 18.2513 11.1303C18.0991 11.3396 17.6833 11.9714 17.5228 12.1244L17.5208 12.1215V12.1235C17.2139 12.5868 16.869 13.0903 16.5931 13.5707C17.554 16.4823 17.6592 19.6091 16.8958 22.5786C17.7031 22.8603 18.4748 23.0491 19.2523 23.31C19.5759 23.0869 20.1188 22.5444 20.4085 22.2621C21.1379 21.5516 21.8288 20.8244 22.4935 20.0532C22.7061 19.8062 23.014 19.3963 23.2103 19.1909L23.2122 19.1889C23.5816 18.6935 23.9609 18.2378 24.3314 17.7231C25.4063 16.2529 26.3145 14.6673 27.0394 12.9965C27.7307 11.2665 28.4892 8.82155 26.7699 7.38614ZM15.8401 14.8608C15.1288 16.2642 14.5638 17.4515 13.9895 18.9223C13.8203 19.3575 13.6625 19.7989 13.5169 20.2426C13.4551 20.4256 13.3381 20.8067 13.2649 20.9711C13.6476 21.1628 14.0435 21.3676 14.43 21.5483C14.8564 21.7526 15.523 22.0165 15.9046 22.2182C16.3956 19.7872 16.5964 17.3229 15.886 14.9067C15.881 14.8943 15.8514 14.8691 15.8401 14.8608ZM7.93873 6.6459C7.03653 6.69809 6.0341 7.03316 5.47387 7.74551C2.82233 11.1224 5.9536 15.4074 8.57252 17.7045C9.65881 18.6573 10.9603 19.6653 12.1555 20.3295L12.3518 20.4575C12.5081 19.8688 12.8087 19.0372 13.0305 18.4731C13.6737 16.8379 14.5139 14.9384 15.4476 13.4526C14.4711 10.9166 12.6261 8.26523 10.0891 7.09805C9.48766 6.82151 8.60594 6.59809 7.93873 6.6459Z" stroke="black" stroke-width="0.3"/>
<path d="M28.4442 23.7626C28.7728 23.6893 29.1155 23.799 29.3403 24.0497C29.5652 24.3004 29.6372 24.6529 29.5285 24.9716C29.42 25.2904 29.1478 25.5256 28.8165 25.5868C28.3174 25.6794 27.8364 25.355 27.7348 24.8576C27.6332 24.3603 27.9489 23.8733 28.4442 23.7626Z" fill="black" stroke="black" stroke-width="0.3"/>
</svg>
